# Blender v2.80 (sub 75) OBJ File: 'broom.blend'
# www.blender.org
mtllib broom_ribbon.mtl
o BROOM_RIBBON_TINTABLE_Cube.004
v 0.687500 0.062500 0.078125
v 0.625000 -0.078125 -0.062500
v 0.625000 -0.078125 0.062500
v 0.687500 0.062500 -0.078125
v 0.687500 -0.078125 0.062500
v 0.687500 -0.078125 -0.062500
v 0.687500 -0.062500 -0.078125
v 0.687500 -0.062500 0.078125
v 0.625000 0.062500 0.078125
v 0.625000 0.078125 -0.062500
v 0.625000 0.078125 0.062500
v 0.625000 0.062500 -0.078125
v 0.687500 0.078125 -0.062500
v 0.625000 -0.062500 0.078125
v 0.625000 -0.062500 -0.078125
v 0.687500 0.078125 0.062500
v 0.634153 -0.078125 -0.053347
v 0.696653 -0.328125 -0.115847
v 0.740847 -0.328125 -0.071653
v 0.678347 -0.078125 -0.009153
v 0.634153 -0.078125 0.053347
v 0.696653 -0.328125 0.115847
v 0.740847 -0.328125 0.071653
v 0.678347 -0.078125 0.009153
v 0.634153 -0.078125 -0.053347
v 0.696653 -0.328125 -0.115847
v 0.740847 -0.328125 -0.071653
v 0.678347 -0.078125 -0.009153
v 0.634153 -0.078125 0.053347
v 0.696653 -0.328125 0.115847
v 0.740847 -0.328125 0.071653
v 0.678347 -0.078125 0.009153
vt 0.562500 1.000000
vt 0.437500 1.000000
vt 0.437500 0.937500
vt 0.562500 0.937500
vt 0.750000 1.000000
vt 0.625000 1.000000
vt 0.625000 0.937500
vt 0.750000 0.937500
vt 0.562500 1.000000
vt 0.437500 1.000000
vt 0.437500 0.937500
vt 0.562500 0.937500
vt 0.312500 1.000000
vt 0.312500 0.875000
vt 0.375000 0.875000
vt 0.375000 1.000000
vt 0.375000 1.000000
vt 0.375000 0.937500
vt 0.625000 0.937500
vt 0.625000 1.000000
vt 0.375000 1.000000
vt 0.375000 0.937500
vt 0.625000 0.937500
vt 0.375000 0.937500
vt 0.375000 0.875000
vt 0.625000 0.875000
vt 0.625000 0.937500
vt 0.625000 0.875000
vt 0.375000 0.875000
vt 0.375000 0.937500
vt 0.625000 0.937500
vt 0.625000 0.875000
vt 0.375000 0.875000
vt 0.375000 0.937500
vt 0.625000 0.937500
vt 0.375000 0.937500
vt 0.375000 0.875000
vt 0.625000 0.875000
vn -0.0000 0.0000 -1.0000
vn 0.0000 -1.0000 0.0000
vn 0.0000 0.0000 1.0000
vn 0.0000 1.0000 0.0000
vn 0.0000 0.7071 0.7071
vn 0.0000 -0.7071 0.7071
vn -0.0000 -0.7071 -0.7071
vn -0.0000 0.7071 -0.7071
vn 0.6667 0.3333 -0.6667
vn 0.6667 0.3333 0.6667
vn -0.6667 -0.3333 0.6667
vn -0.6667 -0.3333 -0.6667
usemtl ADDITIONS
s off
f 15/1/1 12/2/1 4/3/1 7/4/1
f 3/5/2 2/6/2 6/7/2 5/8/2
f 8/9/3 1/10/3 9/11/3 14/12/3
f 10/13/4 11/14/4 16/15/4 13/16/4
f 9/11/5 1/10/5 16/17/5 11/18/5
f 8/9/6 14/12/6 3/19/6 5/20/6
f 15/1/7 7/4/7 6/7/7 2/6/7
f 4/3/8 12/2/8 10/21/8 13/22/8
f 18/23/9 17/24/9 20/25/9 19/26/9
f 22/27/10 23/28/10 24/29/10 21/30/10
f 26/31/11 27/32/11 28/33/11 25/34/11
f 30/35/12 29/36/12 32/37/12 31/38/12
