# Blender v2.80 (sub 75) OBJ File: 'broom.blend'
# www.blender.org
mtllib broom_brush.mtl
o BROOM_BRUSH_TINTABLE_Cube.017
v 0.750000 0.062500 0.062500
v 0.562500 -0.062500 0.062500
v 0.562500 0.062500 0.062500
v 0.750000 0.062500 -0.062500
v 0.562500 -0.062500 -0.062500
v 0.562500 0.062500 -0.062500
v 1.250000 0.187500 0.062500
v 1.250000 0.187500 -0.062500
v 1.250000 0.062500 -0.187500
v 1.250000 -0.062500 -0.187500
v 0.750000 -0.062500 -0.062500
v 1.250000 -0.187500 0.062500
v 1.250000 -0.187500 -0.062500
v 0.750000 -0.062500 0.062500
v 1.250000 -0.062500 0.187500
v 1.250000 0.062500 0.187500
v 1.281250 0.062500 0.062500
v 1.281250 0.062500 -0.062500
v 1.281250 -0.062500 0.062500
v 1.281250 -0.062500 -0.062500
vt 0.500000 0.187500
vt 0.375000 0.187500
vt 0.375000 -0.000000
vt 0.500000 -0.000000
vt 0.375000 0.000000
vt 0.500000 0.000000
vt 0.500000 0.187500
vt 0.375000 0.187500
vt 0.500000 0.687500
vt 0.375000 0.687500
vt 0.250000 -0.000000
vt 0.250000 0.187500
vt 0.625000 0.000000
vt 0.625000 0.187500
vt 0.375000 0.687500
vt 0.250000 0.687500
vt 0.500000 0.687500
vt 0.375000 0.687500
vt 0.625000 0.687500
vt 0.500000 0.687500
vt 0.000000 1.000000
vt 0.062500 0.500000
vt 0.125000 1.000000
vt 0.187500 0.500000
vt 0.250000 1.000000
vt 0.125000 1.000000
vt 0.187500 -0.000000
vt 0.250000 0.500000
vt 0.125000 0.500000
vt 0.125000 0.500000
vt 0.000000 0.500000
vt 0.062500 -0.000000
vt 0.875000 0.375000
vt 0.750000 0.375000
vt 0.750000 0.250000
vt 0.875000 0.250000
vt 0.750000 -0.000000
vt 0.875000 -0.000000
vt 0.875000 0.125000
vt 0.750000 0.125000
vt 0.625000 0.125000
vt 0.625000 0.250000
vt 1.000000 0.250000
vt 1.000000 0.125000
vn 0.0000 0.0000 1.0000
vn -0.0000 0.0000 -1.0000
vn -0.2425 0.0000 -0.9701
vn 0.0000 -1.0000 0.0000
vn 0.0000 1.0000 0.0000
vn -0.2425 -0.9701 0.0000
vn -0.2425 0.0000 0.9701
vn -0.2425 0.9701 0.0000
vn -0.1741 0.6963 0.6963
vn -0.1741 0.6963 -0.6963
vn -0.1741 -0.6963 -0.6963
vn -0.1741 -0.6963 0.6963
vn 0.9701 0.2425 0.0000
vn 0.9701 -0.2425 0.0000
vn 0.9428 -0.2357 0.2357
vn 0.9428 0.2357 0.2357
vn 0.9428 0.2357 -0.2357
vn 0.9428 -0.2357 -0.2357
vn 0.9701 0.0000 -0.2425
vn 0.9701 0.0000 0.2425
vn 1.0000 0.0000 0.0000
usemtl ADDITIONS
s off
f 14/1/1 1/2/1 3/3/1 2/4/1
f 5/5/2 6/6/2 4/7/2 11/8/2
f 11/8/3 4/7/3 9/9/3 10/10/3
f 2/11/4 5/5/4 11/8/4 14/12/4
f 6/6/5 3/13/5 1/14/5 4/7/5
f 14/12/6 11/8/6 13/15/6 12/16/6
f 1/2/7 14/1/7 15/17/7 16/18/7
f 4/7/8 1/14/8 7/19/8 8/20/8
f 7/21/9 1/22/9 16/23/9
f 4/24/10 8/25/10 9/26/10
f 11/27/11 10/28/11 13/29/11
f 12/30/12 15/31/12 14/32/12
f 8/33/13 7/34/13 17/35/13 18/36/13
f 12/37/14 13/38/14 20/39/14 19/40/14
f 12/37/15 19/40/15 15/41/15
f 16/42/16 17/35/16 7/34/16
f 8/33/17 18/36/17 9/43/17
f 13/38/18 10/44/18 20/39/18
f 10/44/19 9/43/19 18/36/19 20/39/19
f 16/42/20 15/41/20 19/40/20 17/35/20
f 18/36/21 17/35/21 19/40/21 20/39/21
