# Blender v2.80 (sub 75) OBJ File: 'broom.blend'
# www.blender.org
mtllib broom_haft.mtl
o BROOM_HAFT_Cube
v -0.625000 -0.031250 0.031250
v -0.625000 0.031250 0.031250
v -0.687500 -0.031250 0.031250
v -0.750000 0.093750 0.031250
v -0.625000 -0.031250 -0.031250
v -0.625000 0.031250 -0.031250
v -0.687500 -0.031250 -0.031250
v -0.750000 0.093750 -0.031250
v -1.000000 0.093750 0.031250
v -1.000000 0.031250 0.031250
v -1.000000 0.031250 -0.031250
v -1.000000 0.093750 -0.031250
v 0.500000 -0.031250 0.031250
v 0.500000 0.031250 0.031250
v 0.500000 0.031250 -0.031250
v 0.500000 -0.031250 -0.031250
v -0.500000 0.031250 0.031250
v -0.500000 0.031250 -0.031250
v -0.500000 -0.031250 -0.031250
v -0.500000 -0.031250 0.031250
v -0.812500 0.031250 0.031250
v -0.812500 0.031250 -0.031250
v -0.812500 0.093750 -0.031250
v -0.812500 0.093750 0.031250
vt 0.312500 0.125000
vt 0.375000 0.250000
vt 0.250000 0.187500
vt 0.937500 0.312500
vt 1.000000 0.312500
vt 1.000000 0.500000
vt 0.937500 0.500000
vt 0.750000 0.187500
vt 0.625000 0.250000
vt 0.687500 0.125000
vt 0.500000 1.000000
vt 0.437500 1.000000
vt 0.437500 0.000000
vt 0.500000 0.000000
vt 1.000000 0.187500
vt 0.937500 0.187500
vt 0.937500 0.125000
vt 1.000000 0.125000
vt 0.500000 0.250000
vt 0.437500 0.250000
vt 0.437500 0.125000
vt 0.500000 0.125000
vt 0.500000 0.500000
vt 0.562500 0.500000
vt 0.562500 0.562500
vt 0.500000 0.562500
vt 0.437500 0.312500
vt 0.500000 0.312500
vt 0.500000 0.500000
vt 0.437500 0.500000
vt 0.312500 0.312500
vt 0.375000 0.312500
vt 0.375000 0.500000
vt 0.312500 0.500000
vt 0.625000 0.312500
vt 0.687500 0.312500
vt 0.687500 0.500000
vt 0.625000 0.500000
vt 0.687500 1.000000
vt 0.750000 1.000000
vt 0.750000 0.000000
vt 0.687500 0.000000
vt 0.312500 1.000000
vt 0.250000 1.000000
vt 0.250000 0.000000
vt 0.312500 0.000000
vt 0.937500 1.000000
vt 1.000000 1.000000
vt 1.000000 0.000000
vt 0.937500 0.000000
vt 0.937500 0.000000
vt 1.000000 0.000000
vt 0.250000 0.125000
vt 0.250000 -0.000000
vt 0.312500 -0.000000
vt 0.750000 0.125000
vt 0.687500 0.000000
vt 0.750000 0.000000
vt 0.437500 0.000000
vt 0.500000 0.000000
vn 0.0000 0.0000 1.0000
vn 0.0000 -1.0000 0.0000
vn -0.0000 0.0000 -1.0000
vn 0.0000 1.0000 0.0000
vn 0.4472 0.8944 0.0000
vn -1.0000 0.0000 0.0000
vn -0.4472 -0.8944 0.0000
usemtl MAIN
s off
f 2/1/1 4/2/1 3/3/1
f 22/4/2 21/5/2 10/6/2 11/7/2
f 7/8/3 8/9/3 6/10/3
f 18/11/4 17/12/4 14/13/4 15/14/4
f 3/15/2 7/16/2 5/17/2 1/18/2
f 8/19/5 4/20/5 2/21/5 6/22/5
f 10/23/6 9/24/6 12/25/6 11/26/6
f 24/27/4 23/28/4 12/29/4 9/30/4
f 21/31/1 24/32/1 9/33/1 10/34/1
f 23/35/3 22/36/3 11/37/3 12/38/3
f 19/39/3 18/40/3 15/41/3 16/42/3
f 17/43/1 20/44/1 13/45/1 14/46/1
f 20/47/2 19/48/2 16/49/2 13/50/2
f 1/18/2 5/17/2 19/51/2 20/52/2
f 2/1/1 1/53/1 20/54/1 17/55/1
f 5/56/3 6/10/3 18/57/3 19/58/3
f 6/22/4 2/21/4 17/59/4 18/60/4
f 8/9/3 7/8/3 22/36/3
f 4/2/1 24/32/1 21/31/1
f 4/20/4 8/19/4 23/28/4 24/27/4
f 7/16/7 3/15/7 21/5/7 22/4/7
f 23/35/3 8/9/3 22/36/3
f 5/56/3 7/8/3 6/10/3
f 1/53/1 2/1/1 3/3/1
f 3/3/1 4/2/1 21/31/1
