# Blender v2.80 (sub 75) OBJ File: 'spellbook.blend'
# www.blender.org
mtllib grimoire_witch_open.mtl
o COVER_BACK_VAR8_OPEN_Cube.203
v 0.156250 0.125000 0.258373
v 0.156250 0.875000 0.258373
v 0.210377 0.125000 0.289623
v 0.210377 0.875000 0.289623
v 0.468750 0.125000 -0.282892
v 0.468750 0.875000 -0.282892
v 0.522877 0.125000 -0.251642
v 0.522877 0.875000 -0.251642
v 0.554127 0.875000 -0.305769
v 0.554127 0.125000 -0.305769
v 0.500000 0.125000 -0.337019
v 0.500000 0.875000 -0.337019
v 0.179127 0.125000 0.343750
v 0.125000 0.125000 0.312500
v 0.125000 0.875000 0.312500
v 0.179127 0.875000 0.343750
v 0.156250 0.937500 0.258373
v 0.210377 0.937500 0.289623
v 0.522877 0.937500 -0.251642
v 0.468750 0.937500 -0.282892
v 0.125000 0.937500 0.312500
v 0.179127 0.937500 0.343750
v 0.210377 0.062500 0.289623
v 0.156250 0.062500 0.258373
v 0.522877 0.062500 -0.251642
v 0.468750 0.062500 -0.282892
v 0.179127 0.062500 0.343750
v 0.125000 0.062500 0.312500
v 0.169782 0.125000 0.266186
v 0.169782 0.875000 0.266186
v 0.482282 0.875000 -0.275080
v 0.482282 0.125000 -0.275080
vt 0.000000 0.968750
vt 0.000000 1.000000
vt 0.031250 1.000000
vt 0.031250 0.968750
vt 0.687500 0.562500
vt 0.375000 0.562500
vt 0.375000 0.937500
vt 0.687500 0.937500
vt 0.000000 0.968750
vt 0.000000 1.000000
vt 0.031250 1.000000
vt 0.031250 0.968750
vt 0.062500 0.937500
vt 0.062500 0.968750
vt 0.375000 0.968750
vt 0.375000 0.937500
vt 0.062500 0.968750
vt 0.062500 0.937500
vt 0.375000 0.937500
vt 0.375000 0.968750
vt 0.062500 0.968750
vt 0.031250 1.000000
vt 0.031250 0.968750
vt 0.062500 0.562500
vt 0.031250 0.562500
vt 0.031250 0.937500
vt 0.062500 0.937500
vt 0.062500 0.562500
vt 0.031250 0.562500
vt 0.031250 0.937500
vt 0.062500 0.937500
vt 0.031250 0.937500
vt 0.062500 0.937500
vt 0.062500 0.562500
vt 0.031250 0.562500
vt 0.031250 0.968750
vt 0.031250 0.937500
vt 0.000000 0.937500
vt 0.000000 0.968750
vt 0.031250 0.562500
vt 0.000000 0.562500
vt 0.000000 0.937500
vt 0.031250 0.937500
vt 0.062500 0.968750
vt 0.031250 0.937500
vt 0.031250 0.968750
vt 0.000000 0.937500
vt 0.031250 0.937500
vt 0.031250 0.562500
vt 0.000000 0.562500
vt 0.031250 0.562500
vt 0.000000 0.562500
vt 0.000000 0.937500
vt 0.031250 0.937500
vt 0.031250 0.968750
vt 0.000000 0.968750
vt 0.031250 1.000000
vt 0.062500 1.000000
vt 0.031250 0.968750
vt 0.031250 1.000000
vt 0.375000 1.000000
vt 0.375000 0.968750
vt 0.062500 0.968750
vt 0.062500 1.000000
vt 0.062500 0.968750
vt 0.062500 1.000000
vt 0.375000 1.000000
vt 0.375000 0.968750
vt 0.375000 0.968750
vt 0.062500 0.968750
vt 0.031250 0.968750
vt 0.062500 0.968750
vt 0.000000 0.968750
vt 0.000000 1.000000
vt 0.031250 1.000000
vt 0.031250 0.968750
vt 0.062500 0.968750
vt 0.375000 0.968750
vt 0.031250 0.968750
vt 0.062500 0.968750
vt 0.062500 0.937500
vt 0.031250 0.937500
vt 0.000000 0.937500
vt 0.000000 0.968750
vt 0.031250 0.968750
vt 0.031250 0.968750
vt 0.031250 0.937500
vt 0.000000 0.968750
vt 0.031250 0.968750
vt 0.031250 0.937500
vt 0.031250 0.968750
vt 0.031250 0.937500
vt 0.000000 0.937500
vt 0.000000 0.968750
vt 0.375000 0.968750
vt 0.375000 0.937500
vt 0.062500 0.937500
vt 0.062500 0.968750
vt 0.687500 0.562500
vt 0.375000 0.562500
vt 0.375000 0.937500
vt 0.687500 0.937500
vt 0.000000 0.937500
vt 0.031250 0.937500
vt 0.031250 0.562500
vt 0.000000 0.562500
vt 0.375000 1.000000
vt 0.375000 0.968750
vt 0.062500 0.968750
vt 0.062500 1.000000
vt 0.062500 0.562500
vt 0.031250 0.562500
vt 0.031250 0.937500
vt 0.062500 0.937500
vn -0.5000 0.0000 0.8660
vn 0.8660 0.0000 0.5000
vn 0.0000 1.0000 0.0000
vn 0.5000 0.0000 -0.8660
vn -0.8660 0.0000 -0.5000
vn 0.3536 0.7071 -0.6124
vn 0.0000 -1.0000 0.0000
vn 0.3536 -0.7071 -0.6124
usemtl FACTION_W.001
s off
f 16/1/1 22/2/1 21/3/1 15/4/1
f 3/5/2 7/6/2 8/7/2 4/8/2
f 4/9/2 18/10/2 22/11/2 16/12/2
f 1/13/3 29/14/3 32/15/3 5/16/3
f 3/17/2 23/18/2 25/19/2 7/20/2
f 9/21/2 19/22/2 8/23/2
f 10/24/4 11/25/4 12/26/4 9/27/4
f 7/28/2 10/29/2 9/30/2 8/31/2
f 6/32/5 12/33/5 11/34/5 5/35/5
f 1/36/5 24/37/5 28/38/5 14/39/5
f 14/40/1 13/41/1 16/42/1 15/43/1
f 11/44/5 26/45/5 5/46/5
f 4/47/2 16/48/2 13/49/2 3/50/2
f 1/51/5 14/52/5 15/53/5 2/54/5
f 17/55/3 21/56/3 22/2/3 18/57/3
f 19/58/6 9/21/6 12/59/6 20/60/6
f 19/61/3 20/62/3 17/63/3 18/64/3
f 2/65/5 17/66/5 20/67/5 6/68/5
f 8/69/2 19/61/2 18/64/2 4/70/2
f 6/71/5 20/60/5 12/72/5
f 15/73/5 21/74/5 17/75/5 2/76/5
f 23/18/7 24/77/7 26/78/7 25/19/7
f 26/45/8 11/79/8 10/80/8 25/81/8
f 23/82/7 27/83/7 28/84/7 24/85/7
f 14/86/1 28/87/1 27/83/1 13/88/1
f 7/89/2 25/90/2 10/80/2
f 13/91/2 27/92/2 23/93/2 3/94/2
f 5/95/5 26/96/5 24/97/5 1/98/5
f 32/99/5 29/100/5 30/101/5 31/102/5
f 2/103/4 30/104/4 29/105/4 1/106/4
f 6/107/7 31/108/7 30/109/7 2/110/7
f 5/111/1 32/112/1 31/113/1 6/114/1
o COVER_FRONT_VAR8_OPEN_Cube.202
v 0.156250 0.125000 0.741627
v 0.156250 0.875000 0.741627
v 0.210377 0.125000 0.710377
v 0.210377 0.875000 0.710377
v 0.468750 0.125000 1.282892
v 0.468750 0.875000 1.282892
v 0.522877 0.125000 1.251642
v 0.522877 0.875000 1.251642
v 0.554127 0.875000 1.305769
v 0.554127 0.125000 1.305769
v 0.500000 0.125000 1.337019
v 0.500000 0.875000 1.337019
v 0.179127 0.125000 0.656250
v 0.125000 0.125000 0.687500
v 0.125000 0.875000 0.687500
v 0.179127 0.875000 0.656250
v 0.156250 0.937500 0.741627
v 0.210377 0.937500 0.710377
v 0.522877 0.937500 1.251642
v 0.468750 0.937500 1.282892
v 0.125000 0.937500 0.687500
v 0.179127 0.937500 0.656250
v 0.210377 0.062500 0.710377
v 0.156250 0.062500 0.741627
v 0.522877 0.062500 1.251642
v 0.468750 0.062500 1.282892
v 0.179127 0.062500 0.656250
v 0.125000 0.062500 0.687500
v 0.169782 0.125000 0.733814
v 0.169782 0.875000 0.733814
v 0.482282 0.875000 1.275080
v 0.482282 0.125000 1.275080
v 0.491627 0.125000 1.197516
v 0.241627 0.125000 0.764503
v 0.241627 0.875000 0.764503
v 0.491627 0.875000 1.197516
v 0.187500 0.125000 0.795753
v 0.437500 0.125000 1.228766
v 0.437500 0.875000 1.228766
v 0.187500 0.875000 0.795753
v 0.241627 0.937500 0.764503
v 0.491627 0.937500 1.197516
v 0.437500 0.937500 1.228766
v 0.187500 0.937500 0.795753
v 0.491627 0.062500 1.197516
v 0.241627 0.062500 0.764503
v 0.187500 0.062500 0.795753
v 0.437500 0.062500 1.228766
v 0.201032 0.125000 0.787941
v 0.451032 0.125000 1.220953
v 0.451032 0.875000 1.220953
v 0.201032 0.875000 0.787941
v 0.156250 0.187500 0.741627
v 0.156250 0.812500 0.741627
v 0.210377 0.812500 0.710377
v 0.210377 0.187500 0.710377
v 0.522877 0.812500 1.251642
v 0.522877 0.187500 1.251642
v 0.468750 0.812500 1.282892
v 0.468750 0.187500 1.282892
v 0.554127 0.812500 1.305769
v 0.554127 0.187500 1.305769
v 0.500000 0.812500 1.337019
v 0.500000 0.187500 1.337019
v 0.125000 0.187500 0.687500
v 0.125000 0.812500 0.687500
v 0.179127 0.812500 0.656250
v 0.179127 0.187500 0.656250
v 0.169782 0.187500 0.733814
v 0.169782 0.812500 0.733814
v 0.482282 0.812500 1.275080
v 0.482282 0.187500 1.275080
v 0.451032 0.812500 1.220953
v 0.451032 0.187500 1.220953
v 0.201032 0.812500 0.787941
v 0.201032 0.187500 0.787941
v 0.241627 0.812500 0.764503
v 0.241627 0.187500 0.764503
v 0.491627 0.812500 1.197516
v 0.491627 0.187500 1.197516
vt 0.000000 0.968750
vt 0.031250 0.968750
vt 0.031250 1.000000
vt 0.000000 1.000000
vt 0.406250 0.906250
vt 0.406250 0.937500
vt 0.375000 0.937500
vt 0.375000 0.906250
vt 0.000000 0.968750
vt 0.031250 0.968750
vt 0.031250 1.000000
vt 0.000000 1.000000
vt 0.343750 0.937500
vt 0.375000 0.937500
vt 0.375000 0.968750
vt 0.343750 0.968750
vt 0.343750 0.968750
vt 0.375000 0.968750
vt 0.375000 0.937500
vt 0.343750 0.937500
vt 0.062500 0.968750
vt 0.031250 0.968750
vt 0.031250 1.000000
vt 0.062500 0.906250
vt 0.062500 0.937500
vt 0.031250 0.937500
vt 0.031250 0.906250
vt 0.062500 0.906250
vt 0.062500 0.937500
vt 0.031250 0.937500
vt 0.031250 0.906250
vt 0.031250 0.593750
vt 0.031250 0.562500
vt 0.062500 0.562500
vt 0.062500 0.593750
vt 0.031250 0.968750
vt 0.000000 0.968750
vt 0.000000 0.937500
vt 0.031250 0.937500
vt 0.031250 0.906250
vt 0.031250 0.937500
vt 0.000000 0.937500
vt 0.000000 0.906250
vt 0.062500 0.968750
vt 0.031250 0.968750
vt 0.031250 0.937500
vt 0.000000 0.593750
vt 0.000000 0.562500
vt 0.031250 0.562500
vt 0.031250 0.593750
vt 0.031250 0.906250
vt 0.031250 0.937500
vt 0.000000 0.937500
vt 0.000000 0.906250
vt 0.031250 0.968750
vt 0.031250 1.000000
vt 0.000000 0.968750
vt 0.062500 1.000000
vt 0.031250 1.000000
vt 0.031250 0.968750
vt 0.093750 1.000000
vt 0.062500 1.000000
vt 0.062500 0.968750
vt 0.093750 0.968750
vt 0.343750 0.968750
vt 0.375000 0.968750
vt 0.375000 1.000000
vt 0.343750 1.000000
vt 0.093750 0.968750
vt 0.062500 0.968750
vt 0.031250 0.968750
vt 0.062500 0.968750
vt 0.000000 0.968750
vt 0.031250 0.968750
vt 0.031250 1.000000
vt 0.000000 1.000000
vt 0.375000 0.968750
vt 0.343750 0.968750
vt 0.062500 0.937500
vt 0.062500 0.968750
vt 0.031250 0.968750
vt 0.031250 0.937500
vt 0.031250 0.968750
vt 0.000000 0.968750
vt 0.000000 0.937500
vt 0.031250 0.968750
vt 0.000000 0.968750
vt 0.031250 0.937500
vt 0.031250 0.968750
vt 0.031250 0.937500
vt 0.031250 0.968750
vt 0.000000 0.968750
vt 0.000000 0.937500
vt 0.031250 0.937500
vt 0.093750 0.968750
vt 0.062500 0.968750
vt 0.062500 0.937500
vt 0.093750 0.937500
vt 0.093750 0.906250
vt 0.093750 0.937500
vt 0.062500 0.937500
vt 0.062500 0.906250
vt 0.000000 0.593750
vt 0.000000 0.562500
vt 0.031250 0.562500
vt 0.031250 0.593750
vt 0.093750 1.000000
vt 0.062500 1.000000
vt 0.062500 0.968750
vt 0.093750 0.968750
vt 0.062500 0.906250
vt 0.062500 0.937500
vt 0.031250 0.937500
vt 0.031250 0.906250
vt 0.375000 1.000000
vt 0.343750 1.000000
vt 0.343750 0.968750
vt 0.375000 0.968750
vt 0.375000 0.906250
vt 0.375000 0.937500
vt 0.343750 0.937500
vt 0.343750 0.906250
vt 0.343750 0.593750
vt 0.093750 0.593750
vt 0.375000 0.968750
vt 0.343750 0.968750
vt 0.343750 0.937500
vt 0.375000 0.937500
vt 0.062500 0.937500
vt 0.093750 0.937500
vt 0.093750 0.968750
vt 0.062500 0.968750
vt 0.375000 0.968750
vt 0.343750 0.968750
vt 0.343750 1.000000
vt 0.375000 1.000000
vt 0.062500 0.968750
vt 0.093750 0.968750
vt 0.093750 1.000000
vt 0.062500 1.000000
vt 0.343750 0.968750
vt 0.375000 0.968750
vt 0.062500 0.968750
vt 0.093750 0.968750
vt 0.062500 0.937500
vt 0.093750 0.937500
vt 0.093750 0.968750
vt 0.062500 0.968750
vt 0.687500 0.906250
vt 0.687500 0.937500
vt 0.656250 0.937500
vt 0.656250 0.906250
vt 0.656250 0.593750
vt 0.406250 0.593750
vt 0.656250 0.562500
vt 0.406250 0.562500
vt 0.687500 0.562500
vt 0.687500 0.593750
vt 0.343750 0.562500
vt 0.093750 0.562500
vt 0.375000 0.562500
vt 0.375000 0.593750
vt 0.062500 0.562500
vt 0.062500 0.593750
vt 0.031250 0.593750
vt 0.031250 0.562500
vt 0.000000 0.937500
vt 0.000000 0.906250
vt 0.031250 0.906250
vt 0.031250 0.937500
vt 0.062500 0.593750
vt 0.062500 0.562500
vt 0.031250 0.562500
vt 0.031250 0.593750
vt 0.000000 0.593750
vt 0.000000 0.562500
vt 0.000000 0.937500
vt 0.000000 0.906250
vt 0.031250 0.906250
vt 0.031250 0.937500
vt 0.031250 0.562500
vt 0.031250 0.593750
vt 0.000000 0.593750
vt 0.000000 0.562500
vt 0.031250 0.937500
vt 0.031250 0.906250
vt 0.062500 0.906250
vt 0.062500 0.937500
vt 0.062500 0.562500
vt 0.062500 0.593750
vt 0.031250 0.593750
vt 0.031250 0.562500
vt 0.062500 0.562500
vt 0.062500 0.593750
vt 0.031250 0.593750
vt 0.031250 0.562500
vt 0.375000 0.593750
vt 0.375000 0.562500
vn -0.5000 0.0000 -0.8660
vn 0.8660 0.0000 -0.5000
vn 0.0000 1.0000 0.0000
vn 0.5000 0.0000 0.8660
vn -0.8660 0.0000 0.5000
vn 0.3536 0.7071 0.6124
vn 0.0000 -1.0000 0.0000
vn 0.3536 -0.7071 0.6124
usemtl FACTION_W.001
s off
f 48/115/9 47/116/9 53/117/9 54/118/9
f 111/119/10 68/120/10 40/121/10 89/122/10
f 36/123/10 48/124/10 54/125/10 50/126/10
f 70/127/11 37/128/11 64/129/11 82/130/11
f 65/131/10 39/132/10 57/133/10 77/134/10
f 41/135/10 40/136/10 51/137/10
f 93/138/12 41/139/12 44/140/12 95/141/12
f 89/142/10 40/143/10 41/144/10 93/145/10
f 92/146/13 37/147/13 43/148/13 96/149/13
f 33/150/13 46/151/13 60/152/13 56/153/13
f 98/154/9 47/155/9 48/156/9 99/157/9
f 43/158/13 37/159/13 58/160/13
f 88/161/10 35/162/10 45/163/10 100/164/10
f 86/165/13 34/166/13 47/167/13 98/168/13
f 49/169/11 50/170/11 54/118/11 53/171/11
f 51/172/14 52/173/14 44/174/14 41/135/14
f 73/175/11 50/176/11 49/177/11 76/178/11
f 71/179/13 38/180/13 52/181/13 75/182/13
f 67/183/10 36/184/10 50/176/10 73/175/10
f 38/185/13 44/186/13 52/173/13
f 47/187/13 34/188/13 49/189/13 53/190/13
f 77/134/15 57/133/15 58/191/15 80/192/15
f 58/160/16 57/193/16 42/194/16 43/195/16
f 55/196/15 56/197/15 60/198/15 59/199/15
f 46/200/9 45/201/9 59/199/9 60/202/9
f 39/203/10 42/194/10 57/204/10
f 45/205/10 35/206/10 55/207/10 59/208/10
f 69/209/13 33/210/13 56/211/13 79/212/13
f 107/213/13 84/214/13 62/215/13 102/216/13
f 85/217/12 33/218/12 61/219/12 101/220/12
f 72/221/15 34/222/15 62/223/15 84/224/15
f 91/225/9 38/226/9 63/227/9 103/228/9
f 38/229/15 71/230/15 83/231/15 63/232/15
f 71/230/15 72/221/15 84/224/15 83/231/15
f 103/233/13 63/234/13 83/235/13 105/236/13
f 106/237/13 105/236/13 107/213/13 108/238/13
f 37/239/13 70/240/13 80/241/13 58/242/13
f 69/209/13 79/212/13 80/241/13 70/240/13
f 55/243/15 78/244/15 79/245/15 56/246/15
f 77/134/15 80/192/15 79/245/15 78/244/15
f 40/247/10 68/248/10 74/249/10 51/250/10
f 67/183/10 73/175/10 74/249/10 68/248/10
f 34/251/13 72/252/13 76/253/13 49/254/13
f 71/179/13 75/182/13 76/253/13 72/252/13
f 51/250/11 74/249/11 75/255/11 52/256/11
f 73/175/11 76/178/11 75/255/11 74/249/11
f 35/257/10 66/258/10 78/244/10 55/243/10
f 65/131/10 77/134/10 78/244/10 66/258/10
f 33/259/11 69/260/11 81/261/11 61/262/11
f 69/260/11 70/127/11 82/130/11 81/261/11
f 87/263/10 36/264/10 67/265/10 109/266/10
f 110/267/10 109/266/10 111/119/10 112/268/10
f 66/269/10 110/267/10 112/268/10 65/270/10
f 109/266/10 67/265/10 68/120/10 111/119/10
f 35/271/10 88/272/10 110/267/10 66/269/10
f 88/272/10 87/263/10 109/266/10 110/267/10
f 82/273/13 106/237/13 108/238/13 81/274/13
f 105/236/13 83/235/13 84/214/13 107/213/13
f 64/275/13 104/276/13 106/237/13 82/273/13
f 104/276/13 103/233/13 105/236/13 106/237/13
f 37/277/9 92/278/9 104/279/9 64/280/9
f 92/278/9 91/225/9 103/228/9 104/279/9
f 34/281/12 86/282/12 102/283/12 62/284/12
f 86/282/12 85/217/12 101/220/12 102/283/12
f 81/274/13 108/238/13 101/285/13 61/286/13
f 108/238/13 107/213/13 102/216/13 101/285/13
f 33/287/13 85/288/13 97/289/13 46/290/13
f 85/288/13 86/165/13 98/168/13 97/289/13
f 36/291/10 87/292/10 99/293/10 48/294/10
f 87/292/10 88/161/10 100/164/10 99/293/10
f 46/295/9 97/296/9 100/297/9 45/298/9
f 97/296/9 98/154/9 99/157/9 100/297/9
f 38/299/13 91/300/13 95/301/13 44/302/13
f 91/300/13 92/146/13 96/149/13 95/301/13
f 39/303/10 90/304/10 94/305/10 42/306/10
f 90/304/10 89/142/10 93/145/10 94/305/10
f 42/307/12 94/308/12 96/309/12 43/310/12
f 94/308/12 93/138/12 95/141/12 96/309/12
f 65/270/10 112/268/10 90/311/10 39/312/10
f 112/268/10 111/119/10 89/122/10 90/311/10
o COVERDECO_BACK_VAR8_OPEN_Cube.201
v 0.317658 0.875000 0.135056
v 0.286408 0.875000 0.189183
v 0.317658 0.937500 0.135056
v 0.286408 0.937500 0.189183
v 0.220843 0.218750 0.115244
v 0.236468 0.250000 0.088181
v 0.205218 0.250000 0.142308
v 0.236468 0.312500 0.088181
v 0.205218 0.312500 0.142308
v 0.236468 0.937500 0.088181
v 0.205218 0.937500 0.142308
v 0.171875 0.953125 0.231310
v 0.226002 0.953125 0.262560
v 0.257252 0.953125 0.208434
v 0.203125 0.953125 0.177184
v 0.158343 0.937500 0.223498
v 0.189593 0.937500 0.169371
v 0.158343 0.312500 0.223498
v 0.189593 0.312500 0.169371
v 0.250000 0.953125 0.095994
v 0.304127 0.953125 0.127244
v 0.239533 0.937500 0.270373
v 0.270783 0.937500 0.216246
v 0.272877 0.953125 0.181370
v 0.218750 0.953125 0.150120
v 0.239533 0.875000 0.270373
v 0.270783 0.875000 0.216246
v 0.189593 0.625000 0.169371
v 0.158343 0.625000 0.223498
v 0.158343 0.312500 0.223498
v 0.189593 0.312500 0.169371
v 0.173968 -0.093750 0.196434
v 0.189593 -0.062500 0.169371
v 0.158343 -0.062500 0.223498
v 0.189593 0.000000 0.169371
v 0.158343 0.000000 0.223498
v 0.317658 0.875000 0.135056
v 0.286408 0.875000 0.189183
v 0.317658 0.937500 0.135056
v 0.286408 0.937500 0.189183
v 0.220843 0.218750 0.115244
v 0.236468 0.250000 0.088181
v 0.205218 0.250000 0.142308
v 0.236468 0.312500 0.088181
v 0.205218 0.312500 0.142308
v 0.236468 0.937500 0.088181
v 0.205218 0.937500 0.142308
v 0.171875 0.953125 0.231310
v 0.226002 0.953125 0.262560
v 0.257252 0.953125 0.208434
v 0.203125 0.953125 0.177184
v 0.158343 0.937500 0.223498
v 0.189593 0.937500 0.169371
v 0.158343 0.312500 0.223498
v 0.189593 0.312500 0.169371
v 0.250000 0.953125 0.095994
v 0.304127 0.953125 0.127244
v 0.239533 0.937500 0.270373
v 0.270783 0.937500 0.216246
v 0.272877 0.953125 0.181370
v 0.218750 0.953125 0.150120
v 0.239533 0.875000 0.270373
v 0.270783 0.875000 0.216246
v 0.189593 0.625000 0.169371
v 0.158343 0.625000 0.223498
v 0.158343 0.312500 0.223498
v 0.189593 0.312500 0.169371
v 0.173968 -0.093750 0.196434
v 0.189593 -0.062500 0.169371
v 0.158343 -0.062500 0.223498
v 0.189593 0.000000 0.169371
v 0.158343 0.000000 0.223498
vt 0.906250 0.531250
vt 0.906250 0.562500
vt 0.937500 0.562500
vt 0.937500 0.531250
vt 0.906250 0.500000
vt 0.937500 0.500000
vt 0.937500 0.156250
vt 0.937500 0.125000
vt 0.906250 0.156250
vt 0.531250 0.562500
vt 0.531250 0.531250
vt 0.500000 0.531250
vt 0.500000 0.562500
vt 0.937500 0.437500
vt 0.937500 0.125000
vt 0.906250 0.125000
vt 0.906250 0.437500
vt 0.937500 0.500000
vt 0.937500 0.468750
vt 0.906250 0.468750
vt 0.906250 0.500000
vt 0.937500 0.437500
vt 0.906250 0.437500
vt 0.531250 0.562500
vt 0.531250 0.531250
vt 0.500000 0.531250
vt 0.500000 0.562500
vt 0.906250 0.531250
vt 0.937500 0.531250
vt 0.937500 0.468750
vt 0.906250 0.468750
vt 0.906250 0.562500
vt 0.937500 0.562500
vt 0.937500 0.281250
vt 0.906250 0.281250
vt 0.937500 0.281250
vt 0.937500 0.125000
vt 0.906250 0.125000
vt 0.906250 0.281250
vt 0.937500 0.156250
vt 0.937500 0.125000
vt 0.906250 0.156250
vt 0.937500 0.375000
vt 0.937500 0.218750
vt 0.906250 0.218750
vt 0.906250 0.375000
vt 0.906250 0.531250
vt 0.937500 0.531250
vt 0.937500 0.562500
vt 0.906250 0.562500
vt 0.906250 0.500000
vt 0.937500 0.500000
vt 0.937500 0.156250
vt 0.906250 0.156250
vt 0.937500 0.125000
vt 0.531250 0.562500
vt 0.500000 0.562500
vt 0.500000 0.531250
vt 0.531250 0.531250
vt 0.937500 0.437500
vt 0.906250 0.437500
vt 0.906250 0.125000
vt 0.937500 0.125000
vt 0.937500 0.500000
vt 0.906250 0.500000
vt 0.906250 0.468750
vt 0.937500 0.468750
vt 0.906250 0.437500
vt 0.937500 0.437500
vt 0.531250 0.562500
vt 0.500000 0.562500
vt 0.500000 0.531250
vt 0.531250 0.531250
vt 0.937500 0.531250
vt 0.906250 0.531250
vt 0.937500 0.468750
vt 0.906250 0.468750
vt 0.937500 0.562500
vt 0.906250 0.562500
vt 0.906250 0.281250
vt 0.937500 0.281250
vt 0.937500 0.281250
vt 0.906250 0.281250
vt 0.906250 0.125000
vt 0.937500 0.125000
vt 0.937500 0.156250
vt 0.906250 0.156250
vt 0.937500 0.125000
vt 0.937500 0.375000
vt 0.906250 0.375000
vt 0.906250 0.218750
vt 0.937500 0.218750
vn 0.8660 0.0000 0.5000
vn 0.6124 0.7071 0.3536
vn -0.8660 -0.0000 -0.5000
vn 0.0000 1.0000 0.0000
vn -0.6124 0.7071 -0.3536
vn -0.6124 -0.7071 -0.3536
vn 0.0000 -1.0000 -0.0000
vn 0.6124 -0.7071 0.3536
usemtl FACTION_W.001
s off
f 116/313/17 114/314/17 113/315/17 115/316/17
f 136/317/18 116/313/18 115/316/18 133/318/18
f 118/319/19 117/320/19 119/321/19
f 120/322/19 118/323/19 119/324/19 121/325/19
f 122/326/19 120/327/19 121/328/19 123/329/19
f 126/330/20 127/331/20 124/332/20 125/333/20
f 127/331/21 129/334/21 128/335/21 124/332/21
f 147/336/19 145/337/19 146/338/19 148/339/19
f 125/333/18 134/340/18 135/341/18 126/330/18
f 132/342/21 122/326/21 123/329/21 137/343/21
f 134/340/17 138/344/17 139/345/17 135/341/17
f 133/318/20 132/342/20 137/343/20 136/317/20
f 129/334/19 140/346/19 141/347/19 128/335/19
f 143/348/19 147/349/19 148/350/19 142/351/19
f 145/352/19 144/353/19 146/354/19
f 140/355/19 131/356/19 130/357/19 141/358/19
f 152/359/19 151/360/19 149/361/19 150/362/19
f 172/363/22 169/364/22 151/360/22 152/359/22
f 154/365/17 155/366/17 153/367/17
f 156/368/17 157/369/17 155/370/17 154/371/17
f 158/372/17 159/373/17 157/374/17 156/375/17
f 162/376/23 161/377/23 160/378/23 163/379/23
f 163/379/24 160/378/24 164/380/24 165/381/24
f 183/382/17 184/383/17 182/384/17 181/385/17
f 161/377/22 162/376/22 171/386/22 170/387/22
f 168/388/24 173/389/24 159/373/24 158/372/24
f 170/387/19 171/386/19 175/390/19 174/391/19
f 169/364/23 172/363/23 173/389/23 168/388/23
f 165/381/17 164/380/17 177/392/17 176/393/17
f 179/394/17 178/395/17 184/396/17 183/397/17
f 181/398/17 182/399/17 180/400/17
f 176/401/17 177/402/17 166/403/17 167/404/17
o COVERDECO_FRONT_VAR8_OPEN_Cube.200
v 0.330218 0.250000 1.074199
v 0.267718 0.250000 0.965945
v 0.388532 0.312500 1.112700
v 0.330218 0.312500 1.074199
v 0.267718 0.312500 0.965945
v 0.263532 0.312500 0.896194
v 0.357282 0.375000 1.058574
v 0.294782 0.375000 0.950320
v 0.326032 0.437500 1.004447
v 0.357282 0.500000 1.058574
v 0.298968 0.500000 1.020072
v 0.294782 0.500000 0.950320
v 0.326032 0.562500 1.004447
v 0.357282 0.625000 1.058574
v 0.294782 0.625000 0.950320
v 0.388532 0.687500 1.112700
v 0.330218 0.687500 1.074199
v 0.267718 0.687500 0.965945
v 0.263532 0.687500 0.896194
v 0.330218 0.750000 1.074199
v 0.267718 0.750000 0.965945
v 0.298968 0.687500 1.020072
v 0.326032 0.625000 1.004447
v 0.388532 0.750000 1.112700
v 0.298968 0.312500 1.020072
v 0.326032 0.375000 1.004447
v 0.357282 0.250000 1.058574
v 0.263532 0.750000 0.896194
v 0.357282 0.812500 1.058574
v 0.294782 0.812500 0.950320
v 0.357282 0.750000 1.058574
v 0.294782 0.750000 0.950320
v 0.326032 0.687500 1.004447
v 0.357282 0.187500 1.058574
v 0.294782 0.187500 0.950320
v 0.388532 0.250000 1.112700
v 0.263532 0.250000 0.896194
v 0.294782 0.250000 0.950320
v 0.326032 0.312500 1.004447
v 0.218750 0.953125 0.849880
v 0.272877 0.953125 0.818630
v 0.304127 0.953125 0.872756
v 0.250000 0.953125 0.904006
v 0.205218 0.937500 0.857692
v 0.236468 0.937500 0.911819
v 0.205218 0.562500 0.857692
v 0.236468 0.562500 0.911819
v 0.205218 0.500000 0.857692
v 0.236468 0.500000 0.911819
v 0.220843 0.468750 0.884756
v 0.171875 0.953125 0.768690
v 0.226002 0.953125 0.737440
v 0.257252 0.953125 0.791566
v 0.203125 0.953125 0.822816
v 0.158343 0.937500 0.776502
v 0.189593 0.937500 0.830629
v 0.158343 0.312500 0.776502
v 0.189593 0.312500 0.830629
v 0.158343 0.250000 0.776502
v 0.189593 0.250000 0.830629
v 0.173968 0.218750 0.803566
v 0.286408 0.937500 0.810817
v 0.317658 0.937500 0.864944
v 0.239533 0.937500 0.729627
v 0.270783 0.937500 0.783754
v 0.299940 0.875000 0.803005
v 0.331190 0.875000 0.857131
v 0.239533 0.875000 0.729627
v 0.270783 0.875000 0.783754
v 0.218750 0.953125 0.849880
v 0.272877 0.953125 0.818630
v 0.304127 0.953125 0.872756
v 0.250000 0.953125 0.904006
v 0.205218 0.937500 0.857692
v 0.236468 0.937500 0.911819
v 0.205218 0.562500 0.857692
v 0.236468 0.562500 0.911819
v 0.205218 0.500000 0.857692
v 0.236468 0.500000 0.911819
v 0.220843 0.468750 0.884756
v 0.171875 0.953125 0.768690
v 0.226002 0.953125 0.737440
v 0.257252 0.953125 0.791566
v 0.203125 0.953125 0.822816
v 0.158343 0.937500 0.776502
v 0.189593 0.937500 0.830629
v 0.158343 0.312500 0.776502
v 0.189593 0.312500 0.830629
v 0.158343 0.250000 0.776502
v 0.189593 0.250000 0.830629
v 0.173968 0.218750 0.803566
v 0.286408 0.937500 0.810817
v 0.317658 0.937500 0.864944
v 0.239533 0.937500 0.729627
v 0.270783 0.937500 0.783754
v 0.299940 0.875000 0.803005
v 0.331190 0.875000 0.857131
v 0.239533 0.875000 0.729627
v 0.270783 0.875000 0.783754
vt 0.437500 0.531250
vt 0.437500 0.562500
vt 0.406250 0.562500
vt 0.406250 0.531250
vt 0.531250 0.531250
vt 0.562500 0.562500
vt 0.531250 0.562500
vt 0.468750 0.531250
vt 0.468750 0.562500
vt 0.437500 0.562500
vt 0.437500 0.531250
vt 0.468750 0.531250
vt 0.468750 0.562500
vt 0.437500 0.562500
vt 0.531250 0.531250
vt 0.500000 0.562500
vt 0.500000 0.531250
vt 0.468750 0.531250
vt 0.468750 0.562500
vt 0.437500 0.531250
vt 0.562500 0.531250
vt 0.593750 0.562500
vt 0.562500 0.562500
vt 0.531250 0.531250
vt 0.531250 0.562500
vt 0.500000 0.562500
vt 0.531250 0.531250
vt 0.500000 0.562500
vt 0.500000 0.531250
vt 0.406250 0.531250
vt 0.562500 0.531250
vt 0.531250 0.531250
vt 0.531250 0.500000
vt 0.562500 0.500000
vt 0.500000 0.531250
vt 0.500000 0.562500
vt 0.531250 0.531250
vt 0.562500 0.531250
vt 0.562500 0.562500
vt 0.531250 0.562500
vt 0.500000 0.562500
vt 0.468750 0.562500
vt 0.468750 0.531250
vt 0.468750 0.531250
vt 0.500000 0.531250
vt 0.500000 0.562500
vt 0.406250 0.531250
vt 0.406250 0.562500
vt 0.375000 0.531250
vt 0.468750 0.562500
vt 0.468750 0.531250
vt 0.500000 0.531250
vt 0.531250 0.531250
vt 0.531250 0.562500
vt 0.437500 0.500000
vt 0.468750 0.500000
vt 0.468750 0.531250
vt 0.437500 0.531250
vt 0.500000 0.500000
vt 0.500000 0.531250
vt 0.406250 0.531250
vt 0.437500 0.500000
vt 0.468750 0.531250
vt 0.437500 0.531250
vt 0.562500 0.562500
vt 0.562500 0.531250
vt 0.593750 0.562500
vt 0.500000 0.500000
vt 0.500000 0.531250
vt 0.500000 0.562500
vt 0.468750 0.562500
vt 0.593750 0.531250
vt 0.593750 0.500000
vt 0.437500 0.562500
vt 0.437500 0.531250
vt 0.531250 0.500000
vt 0.562500 0.500000
vt 0.718750 0.500000
vt 0.687500 0.500000
vt 0.687500 0.468750
vt 0.718750 0.468750
vt 0.687500 0.437500
vt 0.718750 0.437500
vt 0.687500 0.250000
vt 0.718750 0.250000
vt 0.500000 0.531250
vt 0.468750 0.531250
vt 0.468750 0.562500
vt 0.500000 0.562500
vt 0.718750 0.250000
vt 0.687500 0.250000
vt 0.718750 0.281250
vt 0.937500 0.500000
vt 0.906250 0.500000
vt 0.906250 0.468750
vt 0.937500 0.468750
vt 0.906250 0.437500
vt 0.937500 0.437500
vt 0.906250 0.125000
vt 0.937500 0.125000
vt 0.531250 0.562500
vt 0.500000 0.562500
vt 0.500000 0.531250
vt 0.531250 0.531250
vt 0.937500 0.156250
vt 0.906250 0.156250
vt 0.937500 0.125000
vt 0.937500 0.531250
vt 0.906250 0.531250
vt 0.718750 0.531250
vt 0.687500 0.531250
vt 0.937500 0.562500
vt 0.906250 0.562500
vt 0.718750 0.562500
vt 0.687500 0.562500
vt 0.718750 0.500000
vt 0.718750 0.468750
vt 0.687500 0.468750
vt 0.687500 0.500000
vt 0.718750 0.437500
vt 0.687500 0.437500
vt 0.718750 0.250000
vt 0.687500 0.250000
vt 0.500000 0.531250
vt 0.500000 0.562500
vt 0.468750 0.562500
vt 0.468750 0.531250
vt 0.718750 0.250000
vt 0.718750 0.281250
vt 0.687500 0.250000
vt 0.937500 0.500000
vt 0.937500 0.468750
vt 0.906250 0.468750
vt 0.906250 0.500000
vt 0.937500 0.437500
vt 0.906250 0.437500
vt 0.937500 0.125000
vt 0.906250 0.125000
vt 0.531250 0.562500
vt 0.531250 0.531250
vt 0.500000 0.531250
vt 0.500000 0.562500
vt 0.937500 0.156250
vt 0.937500 0.125000
vt 0.906250 0.156250
vt 0.906250 0.531250
vt 0.937500 0.531250
vt 0.687500 0.531250
vt 0.718750 0.531250
vt 0.906250 0.562500
vt 0.937500 0.562500
vt 0.687500 0.562500
vt 0.718750 0.562500
vn -0.9982 0.0000 0.0599
vn -0.5030 -0.4082 0.7618
vn -0.7746 0.4472 0.4472
vn -0.9112 -0.4082 0.0547
vn -0.5030 0.4082 0.7618
vn -0.9112 0.4082 0.0547
vn 0.3536 -0.7071 0.6124
vn -0.7746 -0.4472 0.4472
vn -0.5510 0.0000 0.8345
vn -0.8660 0.0000 0.5000
vn 0.3536 0.7071 0.6124
vn -0.3536 0.7071 -0.6124
vn 0.5000 0.0000 0.8660
vn -0.5000 0.0000 -0.8660
vn -0.3536 -0.7071 -0.6124
vn 0.0000 1.0000 0.0000
vn -0.6124 0.7071 0.3536
vn 0.6124 0.7071 -0.3536
vn 0.8660 0.0000 -0.5000
vn 0.8402 0.2425 -0.4851
vn 0.0000 -1.0000 0.0000
vn 0.6124 -0.7071 -0.3536
vn -0.6124 -0.7071 0.3536
vn -0.8402 -0.2425 0.4851
usemtl FACTION_W.001
s off
f 202/405/25 205/406/25 212/407/25 203/408/25
f 198/409/26 200/410/26 201/411/26
f 209/412/27 210/413/27 192/414/27 189/415/27
f 199/416/28 202/417/28 203/418/28
f 194/419/29 197/420/29 195/421/29
f 195/422/30 197/423/30 196/424/30
f 193/425/26 194/426/26 195/427/26
f 193/428/28 195/429/28 196/430/28
f 187/431/29 191/432/29 188/433/29
f 189/415/30 192/414/30 190/434/30
f 209/435/31 186/436/31 222/437/31 223/438/31
f 207/439/32 206/440/32 202/417/32 199/416/32
f 185/441/33 220/442/33 187/443/33 188/444/33
f 209/445/34 189/446/34 186/447/34
f 206/448/34 205/406/34 202/405/34
f 201/449/34 204/450/34 206/448/34
f 198/409/32 201/411/32 206/440/32 207/439/32
f 188/444/34 209/445/34 185/441/34
f 188/433/27 191/432/27 210/413/27 209/412/27
f 205/451/30 214/452/30 212/453/30
f 213/454/29 204/455/29 208/456/29
f 200/457/33 208/458/33 204/450/33 201/449/33
f 205/459/35 206/460/35 217/461/35 216/462/35
f 206/460/36 204/463/36 215/464/36 217/461/36
f 205/459/37 216/462/37 214/465/37
f 204/466/38 213/467/38 215/468/38
f 185/469/26 218/470/26 220/471/26
f 186/436/37 219/472/37 222/437/37
f 219/473/28 186/474/28 221/475/28
f 185/476/39 209/435/39 223/438/39 211/477/39
f 190/478/25 221/479/25 186/447/25 189/446/25
f 185/441/38 211/480/38 218/481/38
f 226/482/40 225/483/40 224/484/40 227/485/40
f 227/485/41 224/484/41 228/486/41 229/487/41
f 229/487/34 228/486/34 230/488/34 231/489/34
f 231/490/34 230/491/34 232/492/34 233/493/34
f 233/494/34 232/495/34 234/496/34
f 237/497/40 236/498/40 235/499/40 238/500/40
f 238/500/41 235/499/41 239/501/41 240/502/41
f 240/502/34 239/501/34 241/503/34 242/504/34
f 242/505/34 241/506/34 243/507/34 244/508/34
f 244/509/34 243/510/34 245/511/34
f 236/498/42 237/497/42 249/512/42 248/513/42
f 225/483/42 226/482/42 247/514/42 246/515/42
f 248/513/43 249/512/43 253/516/43 252/517/43
f 246/515/44 247/514/44 251/518/44 250/519/44
f 256/520/45 257/521/45 254/522/45 255/523/45
f 257/521/46 259/524/46 258/525/46 254/522/46
f 259/524/43 261/526/43 260/527/43 258/525/43
f 261/528/43 263/529/43 262/530/43 260/531/43
f 263/532/43 264/533/43 262/534/43
f 267/535/45 268/536/45 265/537/45 266/538/45
f 268/536/46 270/539/46 269/540/46 265/537/46
f 270/539/43 272/541/43 271/542/43 269/540/43
f 272/543/43 274/544/43 273/545/43 271/546/43
f 274/547/43 275/548/43 273/549/43
f 266/538/47 278/550/47 279/551/47 267/535/47
f 255/523/47 276/552/47 277/553/47 256/520/47
f 278/550/34 282/554/34 283/555/34 279/551/34
f 276/552/48 280/556/48 281/557/48 277/553/48
o SPINE_VAR8_OPEN_Cube.197
v 0.187500 0.125000 0.687500
v 0.187500 0.875000 0.687500
v 0.187500 0.125000 0.625000
v 0.187500 0.875000 0.625000
v 0.125000 0.125000 0.625000
v 0.125000 0.125000 0.687500
v 0.125000 0.875000 0.687500
v 0.125000 0.875000 0.625000
v 0.187500 0.937500 0.687500
v 0.187500 0.937500 0.625000
v 0.125000 0.937500 0.687500
v 0.125000 0.937500 0.625000
v 0.187500 0.062500 0.625000
v 0.187500 0.062500 0.687500
v 0.125000 0.062500 0.625000
v 0.125000 0.062500 0.687500
v 0.187500 0.125000 0.312500
v 0.187500 0.875000 0.312500
v 0.187500 0.125000 0.375000
v 0.187500 0.875000 0.375000
v 0.125000 0.125000 0.375000
v 0.125000 0.125000 0.312500
v 0.125000 0.875000 0.312500
v 0.125000 0.875000 0.375000
v 0.187500 0.937500 0.312500
v 0.187500 0.937500 0.375000
v 0.125000 0.937500 0.312500
v 0.125000 0.937500 0.375000
v 0.187500 0.062500 0.375000
v 0.187500 0.062500 0.312500
v 0.125000 0.062500 0.375000
v 0.125000 0.062500 0.312500
v 0.140625 0.875000 0.625000
v 0.140625 0.125000 0.625000
v 0.140625 0.875000 0.375000
v 0.140625 0.125000 0.375000
vt 0.000000 0.968750
vt 0.031250 0.968750
vt 0.031250 1.000000
vt 0.000000 1.000000
vt 0.031250 0.968750
vt 0.000000 0.968750
vt 0.000000 0.937500
vt 0.031250 0.937500
vt 0.031250 0.562500
vt 0.031250 0.937500
vt 0.000000 0.937500
vt 0.000000 0.562500
vt 0.031250 0.562500
vt 0.031250 0.937500
vt 0.000000 0.937500
vt 0.000000 0.562500
vt 0.031250 0.968750
vt 0.031250 1.000000
vt 0.000000 0.968750
vt 0.031250 0.937500
vt 0.031250 0.968750
vt 0.000000 0.968750
vt 0.000000 0.937500
vt 0.000000 0.968750
vt 0.031250 0.968750
vt 0.031250 1.000000
vt 0.000000 1.000000
vt 0.000000 0.562500
vt 0.031250 0.562500
vt 0.031250 0.937500
vt 0.000000 0.937500
vt 0.031250 0.968750
vt 0.000000 0.968750
vt 0.000000 0.937500
vt 0.031250 0.968750
vt 0.000000 0.968750
vt 0.031250 0.937500
vt 0.000000 1.000000
vt 0.000000 0.968750
vt 0.031250 0.968750
vt 0.031250 0.968750
vt 0.031250 1.000000
vt 0.000000 1.000000
vt 0.000000 0.968750
vt 0.000000 0.968750
vt 0.000000 0.937500
vt 0.031250 0.937500
vt 0.031250 0.968750
vt 0.000000 0.562500
vt 0.031250 0.562500
vt 0.031250 0.937500
vt 0.000000 0.937500
vt 0.000000 0.562500
vt 0.031250 0.562500
vt 0.031250 0.937500
vt 0.000000 0.937500
vt 0.031250 1.000000
vt 0.000000 0.968750
vt 0.031250 0.968750
vt 0.000000 0.937500
vt 0.031250 0.937500
vt 0.031250 0.968750
vt 0.000000 0.968750
vt 0.031250 0.968750
vt 0.031250 1.000000
vt 0.000000 1.000000
vt 0.000000 0.968750
vt 0.031250 0.562500
vt 0.031250 0.937500
vt 0.000000 0.937500
vt 0.000000 0.562500
vt 0.031250 0.968750
vt 0.000000 0.968750
vt 0.000000 0.937500
vt 0.000000 0.968750
vt 0.031250 0.937500
vt 0.031250 0.968750
vt 0.000000 1.000000
vt 0.000000 0.968750
vt 0.031250 0.968750
vt 0.812500 0.968750
vt 0.687500 0.968750
vt 0.687500 1.000250
vt 0.812500 1.000250
vt 0.687500 0.968750
vt 0.812500 0.968750
vt 0.812500 1.000250
vt 0.687500 1.000250
vt 0.687500 0.968750
vt 0.812500 0.968750
vt 0.031250 0.562500
vt 0.031250 0.937500
vt 0.000000 0.937500
vt 0.000000 0.562500
vt 0.812500 0.969000
vt 0.687500 0.969000
vt 0.687500 0.937500
vt 0.812500 0.937500
vt 0.812500 0.969000
vt 0.687500 0.969000
vt 0.687500 0.937500
vt 0.812500 0.937500
vt 0.687500 0.969000
vt 0.812500 0.969000
vt 0.812500 0.562500
vt 0.937500 0.562500
vt 0.937500 0.937500
vt 0.812500 0.937500
vt 0.812500 0.937500
vt 0.687500 0.937500
vt 0.687500 0.562500
vt 0.812500 0.562500
vt 0.812500 0.937500
vt 0.687500 0.937500
vt 0.812500 1.000250
vt 0.687500 1.000250
vt 0.687500 0.968750
vt 0.812500 0.968750
vt 0.000000 0.937500
vt 0.000000 0.562500
vt 0.031250 0.562500
vt 0.031250 0.937500
vn -1.0000 0.0000 0.0000
vn 0.0000 0.0000 1.0000
vn 0.0000 1.0000 0.0000
vn 1.0000 0.0000 0.0000
vn 0.0000 -1.0000 0.0000
vn 0.0000 0.0000 -1.0000
usemtl FACTION_W.001
s off
f 291/558/49 290/559/49 294/560/49 295/561/49
f 284/562/50 289/563/50 299/564/50 297/565/50
f 289/566/49 290/567/49 291/568/49 288/569/49
f 284/570/50 285/571/50 290/572/50 289/573/50
f 292/574/51 293/575/51 295/561/51 294/576/51
f 296/577/52 286/578/52 284/579/52 297/580/52
f 290/581/50 285/582/50 292/583/50 294/584/50
f 284/585/52 286/586/52 287/587/52 285/588/52
f 296/577/53 297/589/53 299/590/53 298/591/53
f 289/592/49 288/593/49 298/591/49 299/594/49
f 292/595/52 285/596/52 287/597/52 293/575/52
f 307/598/49 311/599/49 310/600/49 306/601/49
f 300/602/54 313/603/54 315/604/54 305/605/54
f 305/606/49 304/607/49 307/608/49 306/609/49
f 300/610/54 305/611/54 306/612/54 301/613/54
f 308/614/51 310/600/51 311/615/51 309/616/51
f 312/617/52 313/618/52 300/619/52 302/620/52
f 306/621/54 310/622/54 308/623/54 301/624/54
f 300/625/52 301/626/52 303/627/52 302/628/52
f 312/629/53 314/630/53 315/631/53 313/618/53
f 305/632/49 315/631/49 314/633/49 304/634/49
f 308/614/52 309/635/52 303/636/52 301/637/52
f 287/638/52 303/639/52 309/640/52 293/641/52
f 293/641/51 309/640/51 311/642/51 295/643/51
f 295/644/49 311/645/49 307/646/49 291/647/49
f 288/648/54 291/649/54 316/650/54 317/651/54
f 288/652/49 304/653/49 314/654/49 298/655/49
f 298/656/53 314/657/53 312/658/53 296/659/53
f 296/659/52 312/658/52 302/660/52 286/661/52
f 286/662/52 302/663/52 303/664/52 287/665/52
f 316/666/49 318/667/49 319/668/49 317/669/49
f 304/653/51 288/652/51 317/670/51 319/671/51
f 291/672/53 307/673/53 318/674/53 316/675/53
f 307/676/50 304/677/50 319/678/50 318/679/50
o PAGES_BACK_VAR8_OPEN_Cube.204
v 0.155377 0.125000 0.384886
v 0.155377 0.875000 0.384886
v 0.232380 0.125000 0.501513
v 0.232380 0.875000 0.501513
v 0.499127 0.125000 -0.210506
v 0.499127 0.875000 -0.210506
v 0.544880 0.125000 -0.039753
v 0.544880 0.875000 -0.039753
v 0.522003 0.875000 -0.125130
v 0.522003 0.125000 -0.125130
v 0.178253 0.875000 0.470263
v 0.178253 0.125000 0.470263
vt 0.312500 0.500000
vt 0.343750 0.531250
vt 0.000000 0.531250
vt 0.000000 0.500000
vt 0.375000 0.125000
vt 0.687500 0.125000
vt 0.687500 0.500000
vt 0.375000 0.500000
vt 0.031250 0.125000
vt 0.000000 0.125000
vt 0.031250 0.500000
vt 0.031250 0.125000
vt 0.062500 0.125000
vt 0.062500 0.500000
vt 0.031250 0.500000
vt 0.000000 0.531250
vt 0.031250 0.562500
vt 0.375000 0.562500
vt 0.343750 0.531250
vt 0.000000 0.125000
vt 0.000000 0.500000
vt 0.000000 0.500000
vt 0.312500 0.500000
vt 0.375000 0.562500
vt 0.031250 0.562500
vn 0.0000 1.0000 -0.0000
vn 0.8660 0.0000 0.5000
vn -0.5000 0.0000 0.8660
vn 0.9659 0.0000 -0.2588
vn 0.0000 -1.0000 -0.0000
usemtl FACTION_W.001
s off
f 327/680/55 328/681/55 330/682/55 323/683/55
f 322/684/56 326/685/56 327/686/56 323/687/56
f 331/688/57 322/689/57 323/683/57 330/690/57
f 329/691/58 324/692/58 325/693/58 328/694/58
f 331/695/59 320/696/59 324/697/59 329/698/59
f 326/699/58 329/691/58 328/694/58 327/700/58
f 322/701/59 331/695/59 329/698/59 326/702/59
f 328/681/55 325/703/55 321/704/55 330/682/55
o PAGES_FRONT_VAR8_OPEN_Cube.205
v 0.155377 0.125000 0.615114
v 0.155377 0.875000 0.615114
v 0.232380 0.125000 0.498487
v 0.232380 0.875000 0.498487
v 0.499127 0.125000 1.210506
v 0.499127 0.875000 1.210506
v 0.544880 0.125000 1.039753
v 0.544880 0.875000 1.039753
v 0.522003 0.875000 1.125130
v 0.522003 0.125000 1.125130
v 0.178253 0.875000 0.529737
v 0.178253 0.125000 0.529737
vt 0.312500 0.562500
vt 0.000000 0.562500
vt 0.000000 0.531250
vt 0.343750 0.531250
vt 0.375000 0.125000
vt 0.375000 0.500000
vt 0.062500 0.500000
vt 0.062500 0.125000
vt 0.031250 0.125000
vt 0.031250 0.500000
vt 0.000000 0.500000
vt 0.000000 0.125000
vt 0.031250 0.125000
vt 0.031250 0.500000
vt 0.000000 0.500000
vt 0.000000 0.125000
vt 0.000000 0.531250
vt 0.343750 0.531250
vt 0.375000 0.500000
vt 0.031250 0.500000
vt -0.000000 0.562500
vt 0.312500 0.562500
vt 0.031250 0.500000
vt 0.375000 0.500000
vn 0.0000 1.0000 0.0000
vn 0.8660 0.0000 -0.5000
vn -0.5000 0.0000 -0.8660
vn 0.9659 0.0000 0.2588
vn 0.0000 -1.0000 0.0000
usemtl FACTION_W
s off
f 339/705/60 335/706/60 342/707/60 340/708/60
f 334/709/61 335/710/61 339/711/61 338/712/61
f 343/713/62 342/714/62 335/715/62 334/716/62
f 341/717/63 340/718/63 337/719/63 336/720/63
f 343/721/64 341/722/64 336/723/64 332/724/64
f 338/712/63 339/711/63 340/718/63 341/717/63
f 334/725/64 338/726/64 341/722/64 343/721/64
f 340/708/60 342/707/60 333/727/60 337/728/60
