# Blender v2.80 (sub 75) OBJ File: 'broom.blend'
# www.blender.org
mtllib broom_connectors.mtl
o BROOM_ATTACHMENTS_Cube.003
v 0.500000 -0.093750 0.031250
v 0.500000 -0.093750 -0.031250
v 0.562500 -0.093750 0.031250
v 0.562500 -0.093750 -0.031250
v -0.890625 -0.015625 0.044194
v -0.890625 -0.059819 0.000000
v -0.890625 -0.015625 -0.044194
v -0.890625 0.028569 0.000000
v -0.921875 -0.015625 0.044194
v -0.921875 -0.059819 0.000000
v -0.921875 -0.015625 -0.044194
v -0.921875 0.028569 0.000000
v -0.890625 -0.015625 0.088388
v -0.890625 -0.104013 0.000000
v -0.890625 -0.015625 -0.088388
v -0.890625 0.072763 0.000000
v -0.921875 -0.015625 0.088388
v -0.921875 -0.104013 0.000000
v -0.921875 -0.015625 -0.088388
v -0.921875 0.072763 0.000000
v 0.500000 -0.031250 0.093750
v 0.500000 -0.031250 -0.093750
v 0.562500 -0.031250 0.093750
v 0.562500 -0.031250 -0.093750
v 0.500000 0.093750 0.031250
v 0.500000 0.093750 -0.031250
v 0.562500 0.093750 0.031250
v 0.562500 0.093750 -0.031250
v 0.500000 0.031250 0.093750
v 0.500000 0.031250 -0.093750
v 0.562500 0.031250 0.093750
v 0.562500 0.031250 -0.093750
vt 0.250000 0.750000
vt 0.250000 0.687500
vt 0.312500 0.687500
vt 0.312500 0.750000
vt 0.250000 0.812500
vt 0.312500 0.812500
vt 0.812500 0.750000
vt 0.750000 0.750000
vt 0.750000 0.625000
vt 0.812500 0.625000
vt 0.937500 0.625000
vt 1.000000 0.625000
vt 1.000000 0.750000
vt 0.937500 0.750000
vt 0.750000 0.875000
vt 0.750000 0.750000
vt 0.812500 0.750000
vt 0.812500 0.875000
vt 1.000000 0.750000
vt 1.000000 0.875000
vt 0.937500 0.875000
vt 0.937500 0.750000
vt 0.812500 0.687500
vt 0.937500 0.687500
vt 0.937500 0.937500
vt 0.812500 0.937500
vt 0.843750 0.781250
vt 0.906250 0.781250
vt 0.937500 0.750000
vt 0.812500 0.750000
vt 0.843750 0.843750
vt 0.812500 0.875000
vt 0.906250 0.843750
vt 0.937500 0.875000
vt 0.906250 0.781250
vt 0.843750 0.781250
vt 0.843750 0.843750
vt 0.906250 0.843750
vt 0.812500 1.000000
vt 0.750000 1.000000
vt 0.750000 0.875000
vt 0.812500 0.875000
vt 0.937500 0.875000
vt 1.000000 0.875000
vt 1.000000 1.000000
vt 0.937500 1.000000
vt 0.250000 0.750000
vt 0.250000 0.812500
vt 0.312500 0.812500
vt 0.312500 0.750000
vt 0.687500 0.375000
vt 0.625000 0.437500
vt 0.812500 0.437500
vt 0.750000 0.375000
vt 0.875000 0.375000
vt 0.937500 0.375000
vt 1.000000 0.437500
vt 0.812500 0.437500
vt 0.812500 0.500000
vt 1.000000 0.500000
vt 0.937500 0.562500
vt 0.875000 0.562500
vt 0.625000 0.500000
vt 0.687500 0.562500
vt 0.750000 0.562500
vt 0.812500 0.500000
vt 0.250000 0.875000
vt 0.250000 0.937500
vt 0.312500 0.937500
vt 0.312500 0.875000
vt 0.250000 1.000000
vt 0.250000 0.937500
vt 0.312500 0.937500
vt 0.312500 1.000000
vt 0.250000 0.875000
vt 0.312500 0.875000
vn 0.0000 -1.0000 0.0000
vn 0.0000 -0.7071 0.7071
vn -0.0000 -0.7071 -0.7071
vn 0.0000 0.7071 0.7071
vn 0.0000 0.7071 -0.7071
vn 1.0000 0.0000 0.0000
vn -1.0000 0.0000 0.0000
vn 0.0000 1.0000 0.0000
vn 0.0000 0.0000 -1.0000
vn 0.0000 0.0000 1.0000
usemtl ADDITIONS
s off
f 1/1/1 2/2/1 4/3/1 3/4/1
f 21/5/2 1/1/2 3/4/2 23/6/2
f 8/7/2 12/8/2 11/9/2 7/10/2
f 5/11/3 9/12/3 12/13/3 8/14/3
f 15/15/3 14/16/3 18/17/3 19/18/3
f 13/19/4 16/20/4 20/21/4 17/22/4
f 14/23/2 13/24/2 17/22/2 18/17/2
f 16/25/5 15/26/5 19/18/5 20/21/5
f 6/27/6 5/28/6 13/29/6 14/30/6
f 7/31/6 6/27/6 14/30/6 15/32/6
f 5/28/6 8/33/6 16/34/6 13/29/6
f 8/33/6 7/31/6 15/32/6 16/34/6
f 9/35/7 10/36/7 18/17/7 17/22/7
f 10/36/7 11/37/7 19/18/7 18/17/7
f 12/38/7 9/35/7 17/22/7 20/21/7
f 11/37/7 12/38/7 20/21/7 19/18/7
f 7/39/4 11/40/4 10/41/4 6/42/4
f 6/43/5 10/44/5 9/45/5 5/46/5
f 2/47/3 22/48/3 24/49/3 4/50/3
f 4/51/6 24/52/6 23/53/6 3/54/6
f 2/55/7 1/56/7 21/57/7 22/58/7
f 30/59/7 29/60/7 25/61/7 26/62/7
f 32/63/6 28/64/6 27/65/6 31/66/6
f 30/67/5 26/68/5 28/69/5 32/70/5
f 26/71/8 25/72/8 27/73/8 28/74/8
f 25/72/4 29/75/4 31/76/4 27/73/4
f 21/57/7 29/60/7 30/59/7 22/58/7
f 22/48/9 30/67/9 32/70/9 24/49/9
f 24/52/6 32/63/6 31/66/6 23/53/6
f 23/6/10 31/76/10 29/75/10 21/5/10
