# Blender v2.80 (sub 75) OBJ File: 'spellbook.blend'
# www.blender.org
mtllib grimoire_witch_closed.mtl
o COVER_BACK_VAR8_CLOSED_Cube.049
v 0.187500 0.125000 0.312500
v 0.187500 0.875000 0.312500
v 0.187500 0.125000 0.375000
v 0.187500 0.875000 0.375000
v 0.812500 0.125000 0.312500
v 0.812500 0.875000 0.312500
v 0.812500 0.125000 0.375000
v 0.812500 0.875000 0.375000
v 0.875000 0.875000 0.375000
v 0.875000 0.125000 0.375000
v 0.875000 0.125000 0.312500
v 0.875000 0.875000 0.312500
v 0.125000 0.125000 0.375000
v 0.125000 0.125000 0.312500
v 0.125000 0.875000 0.312500
v 0.125000 0.875000 0.375000
v 0.187500 0.937500 0.312500
v 0.187500 0.937500 0.375000
v 0.812500 0.937500 0.375000
v 0.812500 0.937500 0.312500
v 0.125000 0.937500 0.312500
v 0.125000 0.937500 0.375000
v 0.187500 0.062500 0.375000
v 0.187500 0.062500 0.312500
v 0.812500 0.062500 0.375000
v 0.812500 0.062500 0.312500
v 0.125000 0.062500 0.375000
v 0.125000 0.062500 0.312500
v 0.187500 0.125000 0.328125
v 0.187500 0.875000 0.328125
v 0.812500 0.875000 0.328125
v 0.812500 0.125000 0.328125
vt 0.000000 0.968750
vt 0.000000 1.000000
vt 0.031250 1.000000
vt 0.031250 0.968750
vt 0.687500 0.562500
vt 0.375000 0.562500
vt 0.375000 0.937500
vt 0.687500 0.937500
vt 0.000000 0.968750
vt 0.000000 1.000000
vt 0.031250 1.000000
vt 0.031250 0.968750
vt 0.062500 0.937500
vt 0.062500 0.968750
vt 0.375000 0.968750
vt 0.375000 0.937500
vt 0.062500 0.968750
vt 0.062500 0.937500
vt 0.375000 0.937500
vt 0.375000 0.968750
vt 0.062500 0.968750
vt 0.031250 1.000000
vt 0.031250 0.968750
vt 0.062500 0.562500
vt 0.031250 0.562500
vt 0.031250 0.937500
vt 0.062500 0.937500
vt 0.062500 0.562500
vt 0.031250 0.562500
vt 0.031250 0.937500
vt 0.062500 0.937500
vt 0.031250 0.937500
vt 0.062500 0.937500
vt 0.062500 0.562500
vt 0.031250 0.562500
vt 0.031250 0.968750
vt 0.031250 0.937500
vt 0.000000 0.937500
vt 0.000000 0.968750
vt 0.031250 0.562500
vt 0.000000 0.562500
vt 0.000000 0.937500
vt 0.031250 0.937500
vt 0.062500 0.968750
vt 0.031250 0.937500
vt 0.031250 0.968750
vt 0.000000 0.937500
vt 0.031250 0.937500
vt 0.031250 0.562500
vt 0.000000 0.562500
vt 0.031250 0.562500
vt 0.000000 0.562500
vt 0.000000 0.937500
vt 0.031250 0.937500
vt 0.031250 0.968750
vt 0.000000 0.968750
vt 0.031250 1.000000
vt 0.062500 1.000000
vt 0.031250 0.968750
vt 0.031250 1.000000
vt 0.375000 1.000000
vt 0.375000 0.968750
vt 0.062500 0.968750
vt 0.062500 1.000000
vt 0.062500 0.968750
vt 0.062500 1.000000
vt 0.375000 1.000000
vt 0.375000 0.968750
vt 0.375000 0.968750
vt 0.062500 0.968750
vt 0.031250 0.968750
vt 0.062500 0.968750
vt 0.000000 0.968750
vt 0.000000 1.000000
vt 0.031250 1.000000
vt 0.031250 0.968750
vt 0.062500 0.968750
vt 0.375000 0.968750
vt 0.031250 0.968750
vt 0.062500 0.968750
vt 0.062500 0.937500
vt 0.031250 0.937500
vt 0.000000 0.937500
vt 0.000000 0.968750
vt 0.031250 0.968750
vt 0.031250 0.968750
vt 0.031250 0.937500
vt 0.000000 0.968750
vt 0.031250 0.968750
vt 0.031250 0.937500
vt 0.031250 0.968750
vt 0.031250 0.937500
vt 0.000000 0.937500
vt 0.000000 0.968750
vt 0.375000 0.968750
vt 0.375000 0.937500
vt 0.062500 0.937500
vt 0.062500 0.968750
vt 0.687500 0.562500
vt 0.375000 0.562500
vt 0.375000 0.937500
vt 0.687500 0.937500
vt 0.000000 0.937500
vt 0.031250 0.937500
vt 0.031250 0.562500
vt 0.000000 0.562500
vt 0.375000 1.000000
vt 0.375000 0.968750
vt 0.062500 0.968750
vt 0.062500 1.000000
vt 0.062500 0.562500
vt 0.031250 0.562500
vt 0.031250 0.937500
vt 0.062500 0.937500
vn -1.0000 0.0000 0.0000
vn 0.0000 0.0000 1.0000
vn 0.0000 1.0000 0.0000
vn 1.0000 0.0000 0.0000
vn 0.0000 0.0000 -1.0000
vn 0.7071 0.7071 0.0000
vn 0.0000 -1.0000 0.0000
vn 0.7071 -0.7071 0.0000
usemtl FACTION_W
s off
f 16/1/1 22/2/1 21/3/1 15/4/1
f 3/5/2 7/6/2 8/7/2 4/8/2
f 4/9/2 18/10/2 22/11/2 16/12/2
f 1/13/3 29/14/3 32/15/3 5/16/3
f 3/17/2 23/18/2 25/19/2 7/20/2
f 9/21/2 19/22/2 8/23/2
f 10/24/4 11/25/4 12/26/4 9/27/4
f 7/28/2 10/29/2 9/30/2 8/31/2
f 6/32/5 12/33/5 11/34/5 5/35/5
f 1/36/5 24/37/5 28/38/5 14/39/5
f 14/40/1 13/41/1 16/42/1 15/43/1
f 11/44/5 26/45/5 5/46/5
f 4/47/2 16/48/2 13/49/2 3/50/2
f 1/51/5 14/52/5 15/53/5 2/54/5
f 17/55/3 21/56/3 22/2/3 18/57/3
f 19/58/6 9/21/6 12/59/6 20/60/6
f 19/61/3 20/62/3 17/63/3 18/64/3
f 2/65/5 17/66/5 20/67/5 6/68/5
f 8/69/2 19/61/2 18/64/2 4/70/2
f 6/71/5 20/60/5 12/72/5
f 15/73/5 21/74/5 17/75/5 2/76/5
f 23/18/7 24/77/7 26/78/7 25/19/7
f 26/45/8 11/79/8 10/80/8 25/81/8
f 23/82/7 27/83/7 28/84/7 24/85/7
f 14/86/1 28/87/1 27/83/1 13/88/1
f 7/89/2 25/90/2 10/80/2
f 13/91/2 27/92/2 23/93/2 3/94/2
f 5/95/5 26/96/5 24/97/5 1/98/5
f 32/99/5 29/100/5 30/101/5 31/102/5
f 2/103/4 30/104/4 29/105/4 1/106/4
f 6/107/7 31/108/7 30/109/7 2/110/7
f 5/111/1 32/112/1 31/113/1 6/114/1
o COVER_FRONT_VAR8_CLOSED_Cube.187
v 0.187500 0.125000 0.687500
v 0.187500 0.875000 0.687500
v 0.187500 0.125000 0.625000
v 0.187500 0.875000 0.625000
v 0.812500 0.125000 0.687500
v 0.812500 0.875000 0.687500
v 0.812500 0.125000 0.625000
v 0.812500 0.875000 0.625000
v 0.875000 0.875000 0.625000
v 0.875000 0.125000 0.625000
v 0.875000 0.125000 0.687500
v 0.875000 0.875000 0.687500
v 0.125000 0.125000 0.625000
v 0.125000 0.125000 0.687500
v 0.125000 0.875000 0.687500
v 0.125000 0.875000 0.625000
v 0.187500 0.937500 0.687500
v 0.187500 0.937500 0.625000
v 0.812500 0.937500 0.625000
v 0.812500 0.937500 0.687500
v 0.125000 0.937500 0.687500
v 0.125000 0.937500 0.625000
v 0.187500 0.062500 0.625000
v 0.187500 0.062500 0.687500
v 0.812500 0.062500 0.625000
v 0.812500 0.062500 0.687500
v 0.125000 0.062500 0.625000
v 0.125000 0.062500 0.687500
v 0.187500 0.125000 0.671875
v 0.187500 0.875000 0.671875
v 0.812500 0.875000 0.671875
v 0.812500 0.125000 0.671875
v 0.750000 0.125000 0.625000
v 0.250000 0.125000 0.625000
v 0.250000 0.875000 0.625000
v 0.750000 0.875000 0.625000
v 0.250000 0.125000 0.687500
v 0.750000 0.125000 0.687500
v 0.750000 0.875000 0.687500
v 0.250000 0.875000 0.687500
v 0.250000 0.937500 0.625000
v 0.750000 0.937500 0.625000
v 0.750000 0.937500 0.687500
v 0.250000 0.937500 0.687500
v 0.750000 0.062500 0.625000
v 0.250000 0.062500 0.625000
v 0.250000 0.062500 0.687500
v 0.750000 0.062500 0.687500
v 0.250000 0.125000 0.671875
v 0.750000 0.125000 0.671875
v 0.750000 0.875000 0.671875
v 0.250000 0.875000 0.671875
v 0.187500 0.187500 0.687500
v 0.187500 0.812500 0.687500
v 0.187500 0.812500 0.625000
v 0.187500 0.187500 0.625000
v 0.812500 0.812500 0.625000
v 0.812500 0.187500 0.625000
v 0.812500 0.812500 0.687500
v 0.812500 0.187500 0.687500
v 0.875000 0.812500 0.625000
v 0.875000 0.187500 0.625000
v 0.875000 0.812500 0.687500
v 0.875000 0.187500 0.687500
v 0.125000 0.187500 0.687500
v 0.125000 0.812500 0.687500
v 0.125000 0.812500 0.625000
v 0.125000 0.187500 0.625000
v 0.187500 0.187500 0.671875
v 0.187500 0.812500 0.671875
v 0.812500 0.812500 0.671875
v 0.812500 0.187500 0.671875
v 0.750000 0.812500 0.671875
v 0.750000 0.187500 0.671875
v 0.250000 0.812500 0.671875
v 0.250000 0.187500 0.671875
v 0.250000 0.812500 0.625000
v 0.250000 0.187500 0.625000
v 0.750000 0.812500 0.625000
v 0.750000 0.187500 0.625000
vt 0.000000 0.968750
vt 0.031250 0.968750
vt 0.031250 1.000000
vt 0.000000 1.000000
vt 0.406250 0.906250
vt 0.406250 0.937500
vt 0.375000 0.937500
vt 0.375000 0.906250
vt 0.000000 0.968750
vt 0.031250 0.968750
vt 0.031250 1.000000
vt 0.000000 1.000000
vt 0.343750 0.937500
vt 0.375000 0.937500
vt 0.375000 0.968750
vt 0.343750 0.968750
vt 0.343750 0.968750
vt 0.375000 0.968750
vt 0.375000 0.937500
vt 0.343750 0.937500
vt 0.062500 0.968750
vt 0.031250 0.968750
vt 0.031250 1.000000
vt 0.062500 0.906250
vt 0.062500 0.937500
vt 0.031250 0.937500
vt 0.031250 0.906250
vt 0.062500 0.906250
vt 0.062500 0.937500
vt 0.031250 0.937500
vt 0.031250 0.906250
vt 0.031250 0.593750
vt 0.031250 0.562500
vt 0.062500 0.562500
vt 0.062500 0.593750
vt 0.031250 0.968750
vt 0.000000 0.968750
vt 0.000000 0.937500
vt 0.031250 0.937500
vt 0.031250 0.906250
vt 0.031250 0.937500
vt 0.000000 0.937500
vt 0.000000 0.906250
vt 0.062500 0.968750
vt 0.031250 0.968750
vt 0.031250 0.937500
vt 0.000000 0.593750
vt 0.000000 0.562500
vt 0.031250 0.562500
vt 0.031250 0.593750
vt 0.031250 0.906250
vt 0.031250 0.937500
vt 0.000000 0.937500
vt 0.000000 0.906250
vt 0.031250 0.968750
vt 0.031250 1.000000
vt 0.000000 0.968750
vt 0.062500 1.000000
vt 0.031250 1.000000
vt 0.031250 0.968750
vt 0.093750 1.000000
vt 0.062500 1.000000
vt 0.062500 0.968750
vt 0.093750 0.968750
vt 0.343750 0.968750
vt 0.375000 0.968750
vt 0.375000 1.000000
vt 0.343750 1.000000
vt 0.093750 0.968750
vt 0.062500 0.968750
vt 0.031250 0.968750
vt 0.062500 0.968750
vt 0.000000 0.968750
vt 0.031250 0.968750
vt 0.031250 1.000000
vt 0.000000 1.000000
vt 0.375000 0.968750
vt 0.343750 0.968750
vt 0.062500 0.937500
vt 0.062500 0.968750
vt 0.031250 0.968750
vt 0.031250 0.937500
vt 0.031250 0.968750
vt 0.000000 0.968750
vt 0.000000 0.937500
vt 0.031250 0.968750
vt 0.000000 0.968750
vt 0.031250 0.937500
vt 0.031250 0.968750
vt 0.031250 0.937500
vt 0.031250 0.968750
vt 0.000000 0.968750
vt 0.000000 0.937500
vt 0.031250 0.937500
vt 0.093750 0.968750
vt 0.062500 0.968750
vt 0.062500 0.937500
vt 0.093750 0.937500
vt 0.093750 0.906250
vt 0.093750 0.937500
vt 0.062500 0.937500
vt 0.062500 0.906250
vt 0.000000 0.593750
vt 0.000000 0.562500
vt 0.031250 0.562500
vt 0.031250 0.593750
vt 0.093750 1.000000
vt 0.062500 1.000000
vt 0.062500 0.968750
vt 0.093750 0.968750
vt 0.062500 0.906250
vt 0.062500 0.937500
vt 0.031250 0.937500
vt 0.031250 0.906250
vt 0.375000 1.000000
vt 0.343750 1.000000
vt 0.343750 0.968750
vt 0.375000 0.968750
vt 0.375000 0.906250
vt 0.375000 0.937500
vt 0.343750 0.937500
vt 0.343750 0.906250
vt 0.343750 0.593750
vt 0.093750 0.593750
vt 0.375000 0.968750
vt 0.343750 0.968750
vt 0.343750 0.937500
vt 0.375000 0.937500
vt 0.062500 0.937500
vt 0.093750 0.937500
vt 0.093750 0.968750
vt 0.062500 0.968750
vt 0.375000 0.968750
vt 0.343750 0.968750
vt 0.343750 1.000000
vt 0.375000 1.000000
vt 0.062500 0.968750
vt 0.093750 0.968750
vt 0.093750 1.000000
vt 0.062500 1.000000
vt 0.343750 0.968750
vt 0.375000 0.968750
vt 0.062500 0.968750
vt 0.093750 0.968750
vt 0.062500 0.937500
vt 0.093750 0.937500
vt 0.093750 0.968750
vt 0.062500 0.968750
vt 0.687500 0.906250
vt 0.687500 0.937500
vt 0.656250 0.937500
vt 0.656250 0.906250
vt 0.656250 0.593750
vt 0.406250 0.593750
vt 0.656250 0.562500
vt 0.406250 0.562500
vt 0.687500 0.562500
vt 0.687500 0.593750
vt 0.343750 0.562500
vt 0.093750 0.562500
vt 0.375000 0.562500
vt 0.375000 0.593750
vt 0.062500 0.562500
vt 0.062500 0.593750
vt 0.031250 0.593750
vt 0.031250 0.562500
vt 0.000000 0.937500
vt 0.000000 0.906250
vt 0.031250 0.906250
vt 0.031250 0.937500
vt 0.062500 0.593750
vt 0.062500 0.562500
vt 0.031250 0.562500
vt 0.031250 0.593750
vt 0.000000 0.593750
vt 0.000000 0.562500
vt 0.000000 0.937500
vt 0.000000 0.906250
vt 0.031250 0.906250
vt 0.031250 0.937500
vt 0.031250 0.562500
vt 0.031250 0.593750
vt 0.000000 0.593750
vt 0.000000 0.562500
vt 0.031250 0.937500
vt 0.031250 0.906250
vt 0.062500 0.906250
vt 0.062500 0.937500
vt 0.062500 0.562500
vt 0.062500 0.593750
vt 0.031250 0.593750
vt 0.031250 0.562500
vt 0.062500 0.562500
vt 0.062500 0.593750
vt 0.031250 0.593750
vt 0.031250 0.562500
vt 0.375000 0.593750
vt 0.375000 0.562500
vn -1.0000 0.0000 0.0000
vn 0.0000 0.0000 -1.0000
vn 0.0000 1.0000 0.0000
vn 1.0000 0.0000 0.0000
vn 0.0000 0.0000 1.0000
vn 0.7071 0.7071 0.0000
vn 0.0000 -1.0000 0.0000
vn 0.7071 -0.7071 0.0000
usemtl FACTION_W
s off
f 48/115/9 47/116/9 53/117/9 54/118/9
f 111/119/10 68/120/10 40/121/10 89/122/10
f 36/123/10 48/124/10 54/125/10 50/126/10
f 70/127/11 37/128/11 64/129/11 82/130/11
f 65/131/10 39/132/10 57/133/10 77/134/10
f 41/135/10 40/136/10 51/137/10
f 93/138/12 41/139/12 44/140/12 95/141/12
f 89/142/10 40/143/10 41/144/10 93/145/10
f 92/146/13 37/147/13 43/148/13 96/149/13
f 33/150/13 46/151/13 60/152/13 56/153/13
f 98/154/9 47/155/9 48/156/9 99/157/9
f 43/158/13 37/159/13 58/160/13
f 88/161/10 35/162/10 45/163/10 100/164/10
f 86/165/13 34/166/13 47/167/13 98/168/13
f 49/169/11 50/170/11 54/118/11 53/171/11
f 51/172/14 52/173/14 44/174/14 41/135/14
f 73/175/11 50/176/11 49/177/11 76/178/11
f 71/179/13 38/180/13 52/181/13 75/182/13
f 67/183/10 36/184/10 50/176/10 73/175/10
f 38/185/13 44/186/13 52/173/13
f 47/187/13 34/188/13 49/189/13 53/190/13
f 77/134/15 57/133/15 58/191/15 80/192/15
f 58/160/16 57/193/16 42/194/16 43/195/16
f 55/196/15 56/197/15 60/198/15 59/199/15
f 46/200/9 45/201/9 59/199/9 60/202/9
f 39/203/10 42/194/10 57/204/10
f 45/205/10 35/206/10 55/207/10 59/208/10
f 69/209/13 33/210/13 56/211/13 79/212/13
f 107/213/13 84/214/13 62/215/13 102/216/13
f 85/217/12 33/218/12 61/219/12 101/220/12
f 72/221/15 34/222/15 62/223/15 84/224/15
f 91/225/9 38/226/9 63/227/9 103/228/9
f 38/229/15 71/230/15 83/231/15 63/232/15
f 71/230/15 72/221/15 84/224/15 83/231/15
f 103/233/13 63/234/13 83/235/13 105/236/13
f 106/237/13 105/236/13 107/213/13 108/238/13
f 37/239/13 70/240/13 80/241/13 58/242/13
f 69/209/13 79/212/13 80/241/13 70/240/13
f 55/243/15 78/244/15 79/245/15 56/246/15
f 77/134/15 80/192/15 79/245/15 78/244/15
f 40/247/10 68/248/10 74/249/10 51/250/10
f 67/183/10 73/175/10 74/249/10 68/248/10
f 34/251/13 72/252/13 76/253/13 49/254/13
f 71/179/13 75/182/13 76/253/13 72/252/13
f 51/250/11 74/249/11 75/255/11 52/256/11
f 73/175/11 76/178/11 75/255/11 74/249/11
f 35/257/10 66/258/10 78/244/10 55/243/10
f 65/131/10 77/134/10 78/244/10 66/258/10
f 33/259/11 69/260/11 81/261/11 61/262/11
f 69/260/11 70/127/11 82/130/11 81/261/11
f 87/263/10 36/264/10 67/265/10 109/266/10
f 110/267/10 109/266/10 111/119/10 112/268/10
f 66/269/10 110/267/10 112/268/10 65/270/10
f 109/266/10 67/265/10 68/120/10 111/119/10
f 35/271/10 88/272/10 110/267/10 66/269/10
f 88/272/10 87/263/10 109/266/10 110/267/10
f 82/273/13 106/237/13 108/238/13 81/274/13
f 105/236/13 83/235/13 84/214/13 107/213/13
f 64/275/13 104/276/13 106/237/13 82/273/13
f 104/276/13 103/233/13 105/236/13 106/237/13
f 37/277/9 92/278/9 104/279/9 64/280/9
f 92/278/9 91/225/9 103/228/9 104/279/9
f 34/281/12 86/282/12 102/283/12 62/284/12
f 86/282/12 85/217/12 101/220/12 102/283/12
f 81/274/13 108/238/13 101/285/13 61/286/13
f 108/238/13 107/213/13 102/216/13 101/285/13
f 33/287/13 85/288/13 97/289/13 46/290/13
f 85/288/13 86/165/13 98/168/13 97/289/13
f 36/291/10 87/292/10 99/293/10 48/294/10
f 87/292/10 88/161/10 100/164/10 99/293/10
f 46/295/9 97/296/9 100/297/9 45/298/9
f 97/296/9 98/154/9 99/157/9 100/297/9
f 38/299/13 91/300/13 95/301/13 44/302/13
f 91/300/13 92/146/13 96/149/13 95/301/13
f 39/303/10 90/304/10 94/305/10 42/306/10
f 90/304/10 89/142/10 93/145/10 94/305/10
f 42/307/12 94/308/12 96/309/12 43/310/12
f 94/308/12 93/138/12 95/141/12 96/309/12
f 65/270/10 112/268/10 90/311/10 39/312/10
f 112/268/10 111/119/10 89/122/10 90/311/10
o SPINE_VAR8_CLOSED_Cube.188
v 0.187500 0.125000 0.687500
v 0.187500 0.875000 0.687500
v 0.187500 0.125000 0.625000
v 0.187500 0.875000 0.625000
v 0.125000 0.125000 0.625000
v 0.125000 0.125000 0.687500
v 0.125000 0.875000 0.687500
v 0.125000 0.875000 0.625000
v 0.187500 0.937500 0.687500
v 0.187500 0.937500 0.625000
v 0.125000 0.937500 0.687500
v 0.125000 0.937500 0.625000
v 0.187500 0.062500 0.625000
v 0.187500 0.062500 0.687500
v 0.125000 0.062500 0.625000
v 0.125000 0.062500 0.687500
v 0.187500 0.125000 0.312500
v 0.187500 0.875000 0.312500
v 0.187500 0.125000 0.375000
v 0.187500 0.875000 0.375000
v 0.125000 0.125000 0.375000
v 0.125000 0.125000 0.312500
v 0.125000 0.875000 0.312500
v 0.125000 0.875000 0.375000
v 0.187500 0.937500 0.312500
v 0.187500 0.937500 0.375000
v 0.125000 0.937500 0.312500
v 0.125000 0.937500 0.375000
v 0.187500 0.062500 0.375000
v 0.187500 0.062500 0.312500
v 0.125000 0.062500 0.375000
v 0.125000 0.062500 0.312500
v 0.140625 0.875000 0.625000
v 0.140625 0.125000 0.625000
v 0.140625 0.875000 0.375000
v 0.140625 0.125000 0.375000
vt 0.000000 0.968750
vt 0.031250 0.968750
vt 0.031250 1.000000
vt 0.000000 1.000000
vt 0.031250 0.968750
vt 0.000000 0.968750
vt 0.000000 0.937500
vt 0.031250 0.937500
vt 0.031250 0.562500
vt 0.031250 0.937500
vt 0.000000 0.937500
vt 0.000000 0.562500
vt 0.031250 0.562500
vt 0.031250 0.937500
vt 0.000000 0.937500
vt 0.000000 0.562500
vt 0.031250 0.968750
vt 0.031250 1.000000
vt 0.000000 0.968750
vt 0.031250 0.937500
vt 0.031250 0.968750
vt 0.000000 0.968750
vt 0.000000 0.937500
vt 0.000000 0.968750
vt 0.031250 0.968750
vt 0.031250 1.000000
vt 0.000000 1.000000
vt 0.000000 0.562500
vt 0.031250 0.562500
vt 0.031250 0.937500
vt 0.000000 0.937500
vt 0.031250 0.968750
vt 0.000000 0.968750
vt 0.000000 0.937500
vt 0.031250 0.968750
vt 0.000000 0.968750
vt 0.031250 0.937500
vt 0.000000 1.000000
vt 0.000000 0.968750
vt 0.031250 0.968750
vt 0.031250 0.968750
vt 0.031250 1.000000
vt 0.000000 1.000000
vt 0.000000 0.968750
vt 0.000000 0.968750
vt 0.000000 0.937500
vt 0.031250 0.937500
vt 0.031250 0.968750
vt 0.000000 0.562500
vt 0.031250 0.562500
vt 0.031250 0.937500
vt 0.000000 0.937500
vt 0.000000 0.562500
vt 0.031250 0.562500
vt 0.031250 0.937500
vt 0.000000 0.937500
vt 0.031250 1.000000
vt 0.000000 0.968750
vt 0.031250 0.968750
vt 0.000000 0.937500
vt 0.031250 0.937500
vt 0.031250 0.968750
vt 0.000000 0.968750
vt 0.031250 0.968750
vt 0.031250 1.000000
vt 0.000000 1.000000
vt 0.000000 0.968750
vt 0.031250 0.562500
vt 0.031250 0.937500
vt 0.000000 0.937500
vt 0.000000 0.562500
vt 0.031250 0.968750
vt 0.000000 0.968750
vt 0.000000 0.937500
vt 0.000000 0.968750
vt 0.031250 0.937500
vt 0.031250 0.968750
vt 0.000000 1.000000
vt 0.000000 0.968750
vt 0.031250 0.968750
vt 0.812500 0.968750
vt 0.687500 0.968750
vt 0.687500 1.000250
vt 0.812500 1.000250
vt 0.687500 0.968750
vt 0.812500 0.968750
vt 0.812500 1.000250
vt 0.687500 1.000250
vt 0.687500 0.968750
vt 0.812500 0.968750
vt 0.031250 0.562500
vt 0.031250 0.937500
vt 0.000000 0.937500
vt 0.000000 0.562500
vt 0.812500 0.969000
vt 0.687500 0.969000
vt 0.687500 0.937500
vt 0.812500 0.937500
vt 0.812500 0.969000
vt 0.687500 0.969000
vt 0.687500 0.937500
vt 0.812500 0.937500
vt 0.687500 0.969000
vt 0.812500 0.969000
vt 0.812500 0.562500
vt 0.937500 0.562500
vt 0.937500 0.937500
vt 0.812500 0.937500
vt 0.812500 0.937500
vt 0.687500 0.937500
vt 0.687500 0.562500
vt 0.812500 0.562500
vt 0.812500 0.937500
vt 0.687500 0.937500
vt 0.812500 1.000250
vt 0.687500 1.000250
vt 0.687500 0.968750
vt 0.812500 0.968750
vt 0.000000 0.937500
vt 0.000000 0.562500
vt 0.031250 0.562500
vt 0.031250 0.937500
vn -1.0000 0.0000 0.0000
vn 0.0000 0.0000 1.0000
vn 0.0000 1.0000 0.0000
vn 1.0000 0.0000 0.0000
vn 0.0000 -1.0000 0.0000
vn 0.0000 0.0000 -1.0000
usemtl FACTION_W
s off
f 120/313/17 119/314/17 123/315/17 124/316/17
f 113/317/18 118/318/18 128/319/18 126/320/18
f 118/321/17 119/322/17 120/323/17 117/324/17
f 113/325/18 114/326/18 119/327/18 118/328/18
f 121/329/19 122/330/19 124/316/19 123/331/19
f 125/332/20 115/333/20 113/334/20 126/335/20
f 119/336/18 114/337/18 121/338/18 123/339/18
f 113/340/20 115/341/20 116/342/20 114/343/20
f 125/332/21 126/344/21 128/345/21 127/346/21
f 118/347/17 117/348/17 127/346/17 128/349/17
f 121/350/20 114/351/20 116/352/20 122/330/20
f 136/353/17 140/354/17 139/355/17 135/356/17
f 129/357/22 142/358/22 144/359/22 134/360/22
f 134/361/17 133/362/17 136/363/17 135/364/17
f 129/365/22 134/366/22 135/367/22 130/368/22
f 137/369/19 139/355/19 140/370/19 138/371/19
f 141/372/20 142/373/20 129/374/20 131/375/20
f 135/376/22 139/377/22 137/378/22 130/379/22
f 129/380/20 130/381/20 132/382/20 131/383/20
f 141/384/21 143/385/21 144/386/21 142/373/21
f 134/387/17 144/386/17 143/388/17 133/389/17
f 137/369/20 138/390/20 132/391/20 130/392/20
f 116/393/20 132/394/20 138/395/20 122/396/20
f 122/396/19 138/395/19 140/397/19 124/398/19
f 124/399/17 140/400/17 136/401/17 120/402/17
f 117/403/22 120/404/22 145/405/22 146/406/22
f 117/407/17 133/408/17 143/409/17 127/410/17
f 127/411/21 143/412/21 141/413/21 125/414/21
f 125/414/20 141/413/20 131/415/20 115/416/20
f 115/417/20 131/418/20 132/419/20 116/420/20
f 145/421/17 147/422/17 148/423/17 146/424/17
f 133/408/19 117/407/19 146/425/19 148/426/19
f 120/427/21 136/428/21 147/429/21 145/430/21
f 136/431/18 133/432/18 148/433/18 147/434/18
o PAGES_VAR8_BACK_CLOSED_Cube.191
v 0.187500 0.125000 0.375000
v 0.187500 0.875000 0.375000
v 0.187500 0.125000 0.500000
v 0.187500 0.875000 0.500000
v 0.812500 0.125000 0.375000
v 0.812500 0.875000 0.375000
v 0.812500 0.125000 0.500000
v 0.812500 0.875000 0.500000
vt 0.062500 0.125000
vt 0.000000 0.125000
vt 0.000000 0.500000
vt 0.062500 0.500000
vt 0.375000 0.125000
vt 0.687500 0.125000
vt 0.687500 0.500000
vt 0.375000 0.500000
vt 0.000000 0.125000
vt 0.062500 0.125000
vt 0.062500 0.500000
vt 0.000000 0.500000
vt 0.312500 0.562500
vt 0.312500 0.500000
vt 0.000000 0.500000
vt 0.000000 0.562500
vt 0.000000 0.562500
vt 0.312500 0.562500
vt 0.312500 0.500000
vn -1.0000 0.0000 0.0000
vn 0.0000 0.0000 1.0000
vn 1.0000 0.0000 0.0000
vn 0.0000 -1.0000 0.0000
vn 0.0000 1.0000 0.0000
usemtl FACTION_W
s off
f 149/435/23 151/436/23 152/437/23 150/438/23
f 151/439/24 155/440/24 156/441/24 152/442/24
f 155/443/25 153/444/25 154/445/25 156/446/25
f 151/447/26 149/448/26 153/449/26 155/450/26
f 156/446/27 154/451/27 150/452/27 152/453/27
o PAGES_VAR8_FRONT_CLOSED_Cube.192
v 0.187500 0.125000 0.625000
v 0.187500 0.875000 0.625000
v 0.187500 0.125000 0.500000
v 0.187500 0.875000 0.500000
v 0.812500 0.125000 0.625000
v 0.812500 0.875000 0.625000
v 0.812500 0.125000 0.500000
v 0.812500 0.875000 0.500000
vt 0.062500 0.125000
vt 0.062500 0.500000
vt 0.000000 0.500000
vt 0.000000 0.125000
vt 0.375000 0.125000
vt 0.375000 0.500000
vt 0.062500 0.500000
vt 0.062500 0.125000
vt 0.000000 0.500000
vt 0.000000 0.125000
vt 0.000000 0.500000
vt 0.312500 0.500000
vt 0.312500 0.562500
vt 0.000000 0.562500
vt 0.312500 0.562500
vt 0.000000 0.562500
vt 0.000000 0.500000
vt 0.312500 0.500000
vn -1.0000 0.0000 0.0000
vn 0.0000 0.0000 -1.0000
vn 1.0000 0.0000 0.0000
vn 0.0000 -1.0000 0.0000
vn 0.0000 1.0000 0.0000
usemtl FACTION_W
s off
f 157/454/28 158/455/28 160/456/28 159/457/28
f 159/458/29 160/459/29 164/460/29 163/461/29
f 163/461/30 164/460/30 162/462/30 161/463/30
f 159/464/31 163/465/31 161/466/31 157/467/31
f 164/468/32 160/469/32 158/470/32 162/471/32
o COVERDECO_FRONT_VAR8_CLOSED_Cube.194
v 0.562500 0.250000 0.703125
v 0.437500 0.250000 0.703125
v 0.625000 0.312500 0.671875
v 0.562500 0.312500 0.703125
v 0.437500 0.312500 0.703125
v 0.375000 0.312500 0.671875
v 0.562500 0.375000 0.671875
v 0.437500 0.375000 0.671875
v 0.500000 0.437500 0.671875
v 0.562500 0.500000 0.671875
v 0.500000 0.500000 0.703125
v 0.437500 0.500000 0.671875
v 0.500000 0.562500 0.671875
v 0.562500 0.625000 0.671875
v 0.437500 0.625000 0.671875
v 0.625000 0.687500 0.671875
v 0.562500 0.687500 0.703125
v 0.437500 0.687500 0.703125
v 0.375000 0.687500 0.671875
v 0.562500 0.750000 0.703125
v 0.437500 0.750000 0.703125
v 0.500000 0.687500 0.703125
v 0.500000 0.625000 0.671875
v 0.625000 0.750000 0.671875
v 0.500000 0.312500 0.703125
v 0.500000 0.375000 0.671875
v 0.562500 0.250000 0.671875
v 0.375000 0.750000 0.671875
v 0.562500 0.812500 0.671875
v 0.437500 0.812500 0.671875
v 0.562500 0.750000 0.671875
v 0.437500 0.750000 0.671875
v 0.500000 0.687500 0.671875
v 0.562500 0.187500 0.671875
v 0.437500 0.187500 0.671875
v 0.625000 0.250000 0.671875
v 0.375000 0.250000 0.671875
v 0.437500 0.250000 0.671875
v 0.500000 0.312500 0.671875
v 0.312500 0.953125 0.687500
v 0.312500 0.953125 0.625000
v 0.375000 0.953125 0.625000
v 0.375000 0.953125 0.687500
v 0.312500 0.937500 0.703125
v 0.375000 0.937500 0.703125
v 0.312500 0.562500 0.703125
v 0.375000 0.562500 0.703125
v 0.312500 0.500000 0.703125
v 0.375000 0.500000 0.703125
v 0.343750 0.468750 0.703125
v 0.218750 0.953125 0.687500
v 0.218750 0.953125 0.625000
v 0.281250 0.953125 0.625000
v 0.281250 0.953125 0.687500
v 0.218750 0.937500 0.703125
v 0.281250 0.937500 0.703125
v 0.218750 0.312500 0.703125
v 0.281250 0.312500 0.703125
v 0.218750 0.250000 0.703125
v 0.281250 0.250000 0.703125
v 0.250000 0.218750 0.703125
v 0.312500 0.937500 0.609375
v 0.375000 0.937500 0.609375
v 0.218750 0.937500 0.609375
v 0.281250 0.937500 0.609375
v 0.312500 0.875000 0.593750
v 0.375000 0.875000 0.593750
v 0.218750 0.875000 0.609375
v 0.281250 0.875000 0.609375
v 0.312500 0.953125 0.687500
v 0.312500 0.953125 0.625000
v 0.375000 0.953125 0.625000
v 0.375000 0.953125 0.687500
v 0.312500 0.937500 0.703125
v 0.375000 0.937500 0.703125
v 0.312500 0.562500 0.703125
v 0.375000 0.562500 0.703125
v 0.312500 0.500000 0.703125
v 0.375000 0.500000 0.703125
v 0.343750 0.468750 0.703125
v 0.218750 0.953125 0.687500
v 0.218750 0.953125 0.625000
v 0.281250 0.953125 0.625000
v 0.281250 0.953125 0.687500
v 0.218750 0.937500 0.703125
v 0.281250 0.937500 0.703125
v 0.218750 0.312500 0.703125
v 0.281250 0.312500 0.703125
v 0.218750 0.250000 0.703125
v 0.281250 0.250000 0.703125
v 0.250000 0.218750 0.703125
v 0.312500 0.937500 0.609375
v 0.375000 0.937500 0.609375
v 0.218750 0.937500 0.609375
v 0.281250 0.937500 0.609375
v 0.312500 0.875000 0.593750
v 0.375000 0.875000 0.593750
v 0.218750 0.875000 0.609375
v 0.281250 0.875000 0.609375
vt 0.437500 0.531250
vt 0.437500 0.562500
vt 0.406250 0.562500
vt 0.406250 0.531250
vt 0.531250 0.531250
vt 0.562500 0.562500
vt 0.531250 0.562500
vt 0.468750 0.531250
vt 0.468750 0.562500
vt 0.437500 0.562500
vt 0.437500 0.531250
vt 0.468750 0.531250
vt 0.468750 0.562500
vt 0.437500 0.562500
vt 0.531250 0.531250
vt 0.500000 0.562500
vt 0.500000 0.531250
vt 0.468750 0.531250
vt 0.468750 0.562500
vt 0.437500 0.531250
vt 0.562500 0.531250
vt 0.593750 0.562500
vt 0.562500 0.562500
vt 0.531250 0.531250
vt 0.531250 0.562500
vt 0.500000 0.562500
vt 0.531250 0.531250
vt 0.500000 0.562500
vt 0.500000 0.531250
vt 0.406250 0.531250
vt 0.562500 0.531250
vt 0.531250 0.531250
vt 0.531250 0.500000
vt 0.562500 0.500000
vt 0.500000 0.531250
vt 0.500000 0.562500
vt 0.531250 0.531250
vt 0.562500 0.531250
vt 0.562500 0.562500
vt 0.531250 0.562500
vt 0.500000 0.562500
vt 0.468750 0.562500
vt 0.468750 0.531250
vt 0.468750 0.531250
vt 0.500000 0.531250
vt 0.500000 0.562500
vt 0.406250 0.531250
vt 0.406250 0.562500
vt 0.375000 0.531250
vt 0.468750 0.562500
vt 0.468750 0.531250
vt 0.500000 0.531250
vt 0.531250 0.531250
vt 0.531250 0.562500
vt 0.437500 0.500000
vt 0.468750 0.500000
vt 0.468750 0.531250
vt 0.437500 0.531250
vt 0.500000 0.500000
vt 0.500000 0.531250
vt 0.406250 0.531250
vt 0.437500 0.500000
vt 0.468750 0.531250
vt 0.437500 0.531250
vt 0.562500 0.562500
vt 0.562500 0.531250
vt 0.593750 0.562500
vt 0.500000 0.500000
vt 0.500000 0.531250
vt 0.500000 0.562500
vt 0.468750 0.562500
vt 0.593750 0.531250
vt 0.593750 0.500000
vt 0.437500 0.562500
vt 0.437500 0.531250
vt 0.531250 0.500000
vt 0.562500 0.500000
vt 0.718750 0.500000
vt 0.687500 0.500000
vt 0.687500 0.468750
vt 0.718750 0.468750
vt 0.687500 0.437500
vt 0.718750 0.437500
vt 0.687500 0.250000
vt 0.718750 0.250000
vt 0.500000 0.531250
vt 0.468750 0.531250
vt 0.468750 0.562500
vt 0.500000 0.562500
vt 0.718750 0.250000
vt 0.687500 0.250000
vt 0.718750 0.281250
vt 0.937500 0.500000
vt 0.906250 0.500000
vt 0.906250 0.468750
vt 0.937500 0.468750
vt 0.906250 0.437500
vt 0.937500 0.437500
vt 0.906250 0.125000
vt 0.937500 0.125000
vt 0.531250 0.562500
vt 0.500000 0.562500
vt 0.500000 0.531250
vt 0.531250 0.531250
vt 0.937500 0.156250
vt 0.906250 0.156250
vt 0.937500 0.125000
vt 0.937500 0.531250
vt 0.906250 0.531250
vt 0.718750 0.531250
vt 0.687500 0.531250
vt 0.937500 0.562500
vt 0.906250 0.562500
vt 0.718750 0.562500
vt 0.687500 0.562500
vt 0.718750 0.500000
vt 0.718750 0.468750
vt 0.687500 0.468750
vt 0.687500 0.500000
vt 0.718750 0.437500
vt 0.687500 0.437500
vt 0.718750 0.250000
vt 0.687500 0.250000
vt 0.500000 0.531250
vt 0.500000 0.562500
vt 0.468750 0.562500
vt 0.468750 0.531250
vt 0.718750 0.250000
vt 0.718750 0.281250
vt 0.687500 0.250000
vt 0.937500 0.500000
vt 0.937500 0.468750
vt 0.906250 0.468750
vt 0.906250 0.500000
vt 0.937500 0.437500
vt 0.906250 0.437500
vt 0.937500 0.125000
vt 0.906250 0.125000
vt 0.531250 0.562500
vt 0.531250 0.531250
vt 0.500000 0.531250
vt 0.500000 0.562500
vt 0.937500 0.156250
vt 0.937500 0.125000
vt 0.906250 0.156250
vt 0.906250 0.531250
vt 0.937500 0.531250
vt 0.687500 0.531250
vt 0.718750 0.531250
vt 0.906250 0.562500
vt 0.937500 0.562500
vt 0.687500 0.562500
vt 0.718750 0.562500
vn -0.4472 0.0000 0.8944
vn 0.4082 -0.4082 0.8165
vn 0.0000 0.4472 0.8944
vn -0.4082 -0.4082 0.8165
vn 0.4082 0.4082 0.8165
vn -0.4082 0.4082 0.8165
vn 0.7071 -0.7071 0.0000
vn 0.0000 -0.4472 0.8944
vn 0.4472 0.0000 0.8944
vn 0.0000 0.0000 1.0000
vn 0.7071 0.7071 0.0000
vn -0.7071 0.7071 0.0000
vn 1.0000 0.0000 0.0000
vn -1.0000 0.0000 0.0000
vn -0.7071 -0.7071 0.0000
vn 0.0000 1.0000 0.0000
vn 0.0000 0.7071 0.7071
vn 0.0000 0.7071 -0.7071
vn 0.0000 0.0000 -1.0000
vn 0.0000 0.2425 -0.9701
vn 0.0000 -1.0000 0.0000
vn 0.0000 -0.7071 -0.7071
vn 0.0000 -0.7071 0.7071
vn 0.0000 -0.2425 0.9701
usemtl FACTION_W
s off
f 182/472/33 185/473/33 192/474/33 183/475/33
f 178/476/34 180/477/34 181/478/34
f 189/479/35 190/480/35 172/481/35 169/482/35
f 179/483/36 182/484/36 183/485/36
f 174/486/37 177/487/37 175/488/37
f 175/489/38 177/490/38 176/491/38
f 173/492/34 174/493/34 175/494/34
f 173/495/36 175/496/36 176/497/36
f 167/498/37 171/499/37 168/500/37
f 169/482/38 172/481/38 170/501/38
f 189/502/39 166/503/39 202/504/39 203/505/39
f 187/506/40 186/507/40 182/484/40 179/483/40
f 165/508/41 200/509/41 167/510/41 168/511/41
f 189/512/42 169/513/42 166/514/42
f 186/515/42 185/473/42 182/472/42
f 181/516/42 184/517/42 186/515/42
f 178/476/40 181/478/40 186/507/40 187/506/40
f 168/511/42 189/512/42 165/508/42
f 168/500/35 171/499/35 190/480/35 189/479/35
f 185/518/38 194/519/38 192/520/38
f 193/521/37 184/522/37 188/523/37
f 180/524/41 188/525/41 184/517/41 181/516/41
f 185/526/43 186/527/43 197/528/43 196/529/43
f 186/527/44 184/530/44 195/531/44 197/528/44
f 185/526/45 196/529/45 194/532/45
f 184/533/46 193/534/46 195/535/46
f 165/536/34 198/537/34 200/538/34
f 166/503/45 199/539/45 202/504/45
f 199/540/36 166/541/36 201/542/36
f 165/543/47 189/502/47 203/505/47 191/544/47
f 170/545/33 201/546/33 166/514/33 169/513/33
f 165/508/46 191/547/46 198/548/46
f 206/549/48 205/550/48 204/551/48 207/552/48
f 207/552/49 204/551/49 208/553/49 209/554/49
f 209/554/42 208/553/42 210/555/42 211/556/42
f 211/557/42 210/558/42 212/559/42 213/560/42
f 213/561/42 212/562/42 214/563/42
f 217/564/48 216/565/48 215/566/48 218/567/48
f 218/567/49 215/566/49 219/568/49 220/569/49
f 220/569/42 219/568/42 221/570/42 222/571/42
f 222/572/42 221/573/42 223/574/42 224/575/42
f 224/576/42 223/577/42 225/578/42
f 216/565/50 217/564/50 229/579/50 228/580/50
f 205/550/50 206/549/50 227/581/50 226/582/50
f 228/580/51 229/579/51 233/583/51 232/584/51
f 226/582/52 227/581/52 231/585/52 230/586/52
f 236/587/53 237/588/53 234/589/53 235/590/53
f 237/588/54 239/591/54 238/592/54 234/589/54
f 239/591/51 241/593/51 240/594/51 238/592/51
f 241/595/51 243/596/51 242/597/51 240/598/51
f 243/599/51 244/600/51 242/601/51
f 247/602/53 248/603/53 245/604/53 246/605/53
f 248/603/54 250/606/54 249/607/54 245/604/54
f 250/606/51 252/608/51 251/609/51 249/607/51
f 252/610/51 254/611/51 253/612/51 251/613/51
f 254/614/51 255/615/51 253/616/51
f 246/605/55 258/617/55 259/618/55 247/602/55
f 235/590/55 256/619/55 257/620/55 236/587/55
f 258/617/42 262/621/42 263/622/42 259/618/42
f 256/619/56 260/623/56 261/624/56 257/620/56
o COVERDECO_BACK_VAR8_CLOSED_Cube.196
v 0.375000 0.875000 0.390625
v 0.312500 0.875000 0.390625
v 0.375000 0.937500 0.390625
v 0.312500 0.937500 0.390625
v 0.343750 0.218750 0.296875
v 0.375000 0.250000 0.296875
v 0.312500 0.250000 0.296875
v 0.375000 0.312500 0.296875
v 0.312500 0.312500 0.296875
v 0.375000 0.937500 0.296875
v 0.312500 0.937500 0.296875
v 0.218750 0.953125 0.312500
v 0.218750 0.953125 0.375000
v 0.281250 0.953125 0.375000
v 0.281250 0.953125 0.312500
v 0.218750 0.937500 0.296875
v 0.281250 0.937500 0.296875
v 0.218750 0.312500 0.296875
v 0.281250 0.312500 0.296875
v 0.375000 0.953125 0.312500
v 0.375000 0.953125 0.375000
v 0.218750 0.937500 0.390625
v 0.281250 0.937500 0.390625
v 0.312500 0.953125 0.375000
v 0.312500 0.953125 0.312500
v 0.218750 0.875000 0.390625
v 0.281250 0.875000 0.390625
v 0.281250 0.625000 0.296875
v 0.218750 0.625000 0.296875
v 0.218750 0.312500 0.296875
v 0.281250 0.312500 0.296875
v 0.250000 -0.093750 0.296875
v 0.281250 -0.062500 0.296875
v 0.218750 -0.062500 0.296875
v 0.281250 0.000000 0.296875
v 0.218750 0.000000 0.296875
v 0.375000 0.875000 0.390625
v 0.312500 0.875000 0.390625
v 0.375000 0.937500 0.390625
v 0.312500 0.937500 0.390625
v 0.343750 0.218750 0.296875
v 0.375000 0.250000 0.296875
v 0.312500 0.250000 0.296875
v 0.375000 0.312500 0.296875
v 0.312500 0.312500 0.296875
v 0.375000 0.937500 0.296875
v 0.312500 0.937500 0.296875
v 0.218750 0.953125 0.312500
v 0.218750 0.953125 0.375000
v 0.281250 0.953125 0.375000
v 0.281250 0.953125 0.312500
v 0.218750 0.937500 0.296875
v 0.281250 0.937500 0.296875
v 0.218750 0.312500 0.296875
v 0.281250 0.312500 0.296875
v 0.375000 0.953125 0.312500
v 0.375000 0.953125 0.375000
v 0.218750 0.937500 0.390625
v 0.281250 0.937500 0.390625
v 0.312500 0.953125 0.375000
v 0.312500 0.953125 0.312500
v 0.218750 0.875000 0.390625
v 0.281250 0.875000 0.390625
v 0.281250 0.625000 0.296875
v 0.218750 0.625000 0.296875
v 0.218750 0.312500 0.296875
v 0.281250 0.312500 0.296875
v 0.250000 -0.093750 0.296875
v 0.281250 -0.062500 0.296875
v 0.218750 -0.062500 0.296875
v 0.281250 0.000000 0.296875
v 0.218750 0.000000 0.296875
vt 0.906250 0.531250
vt 0.906250 0.562500
vt 0.937500 0.562500
vt 0.937500 0.531250
vt 0.906250 0.500000
vt 0.937500 0.500000
vt 0.937500 0.156250
vt 0.937500 0.125000
vt 0.906250 0.156250
vt 0.531250 0.562500
vt 0.531250 0.531250
vt 0.500000 0.531250
vt 0.500000 0.562500
vt 0.937500 0.437500
vt 0.937500 0.125000
vt 0.906250 0.125000
vt 0.906250 0.437500
vt 0.937500 0.500000
vt 0.937500 0.468750
vt 0.906250 0.468750
vt 0.906250 0.500000
vt 0.937500 0.437500
vt 0.906250 0.437500
vt 0.531250 0.562500
vt 0.531250 0.531250
vt 0.500000 0.531250
vt 0.500000 0.562500
vt 0.906250 0.531250
vt 0.937500 0.531250
vt 0.937500 0.468750
vt 0.906250 0.468750
vt 0.906250 0.562500
vt 0.937500 0.562500
vt 0.937500 0.281250
vt 0.906250 0.281250
vt 0.937500 0.281250
vt 0.937500 0.125000
vt 0.906250 0.125000
vt 0.906250 0.281250
vt 0.937500 0.156250
vt 0.937500 0.125000
vt 0.906250 0.156250
vt 0.937500 0.375000
vt 0.937500 0.218750
vt 0.906250 0.218750
vt 0.906250 0.375000
vt 0.906250 0.531250
vt 0.937500 0.531250
vt 0.937500 0.562500
vt 0.906250 0.562500
vt 0.906250 0.500000
vt 0.937500 0.500000
vt 0.937500 0.156250
vt 0.906250 0.156250
vt 0.937500 0.125000
vt 0.531250 0.562500
vt 0.500000 0.562500
vt 0.500000 0.531250
vt 0.531250 0.531250
vt 0.937500 0.437500
vt 0.906250 0.437500
vt 0.906250 0.125000
vt 0.937500 0.125000
vt 0.937500 0.500000
vt 0.906250 0.500000
vt 0.906250 0.468750
vt 0.937500 0.468750
vt 0.906250 0.437500
vt 0.937500 0.437500
vt 0.531250 0.562500
vt 0.500000 0.562500
vt 0.500000 0.531250
vt 0.531250 0.531250
vt 0.937500 0.531250
vt 0.906250 0.531250
vt 0.937500 0.468750
vt 0.906250 0.468750
vt 0.937500 0.562500
vt 0.906250 0.562500
vt 0.906250 0.281250
vt 0.937500 0.281250
vt 0.937500 0.281250
vt 0.906250 0.281250
vt 0.906250 0.125000
vt 0.937500 0.125000
vt 0.937500 0.156250
vt 0.906250 0.156250
vt 0.937500 0.125000
vt 0.937500 0.375000
vt 0.906250 0.375000
vt 0.906250 0.218750
vt 0.937500 0.218750
vn 0.0000 0.0000 1.0000
vn 0.0000 0.7071 0.7071
vn 0.0000 0.0000 -1.0000
vn 0.0000 1.0000 0.0000
vn 0.0000 0.7071 -0.7071
vn 0.0000 -0.7071 -0.7071
vn 0.0000 -1.0000 0.0000
vn 0.0000 -0.7071 0.7071
usemtl FACTION_W
s off
f 267/625/57 265/626/57 264/627/57 266/628/57
f 287/629/58 267/625/58 266/628/58 284/630/58
f 269/631/59 268/632/59 270/633/59
f 271/634/59 269/635/59 270/636/59 272/637/59
f 273/638/59 271/639/59 272/640/59 274/641/59
f 277/642/60 278/643/60 275/644/60 276/645/60
f 278/643/61 280/646/61 279/647/61 275/644/61
f 298/648/59 296/649/59 297/650/59 299/651/59
f 276/645/58 285/652/58 286/653/58 277/642/58
f 283/654/61 273/638/61 274/641/61 288/655/61
f 285/652/57 289/656/57 290/657/57 286/653/57
f 284/630/60 283/654/60 288/655/60 287/629/60
f 280/646/59 291/658/59 292/659/59 279/647/59
f 294/660/59 298/661/59 299/662/59 293/663/59
f 296/664/59 295/665/59 297/666/59
f 291/667/59 282/668/59 281/669/59 292/670/59
f 303/671/59 302/672/59 300/673/59 301/674/59
f 323/675/62 320/676/62 302/672/62 303/671/62
f 305/677/57 306/678/57 304/679/57
f 307/680/57 308/681/57 306/682/57 305/683/57
f 309/684/57 310/685/57 308/686/57 307/687/57
f 313/688/63 312/689/63 311/690/63 314/691/63
f 314/691/64 311/690/64 315/692/64 316/693/64
f 334/694/57 335/695/57 333/696/57 332/697/57
f 312/689/62 313/688/62 322/698/62 321/699/62
f 319/700/64 324/701/64 310/685/64 309/684/64
f 321/699/59 322/698/59 326/702/59 325/703/59
f 320/676/63 323/675/63 324/701/63 319/700/63
f 316/693/57 315/692/57 328/704/57 327/705/57
f 330/706/57 329/707/57 335/708/57 334/709/57
f 332/710/57 333/711/57 331/712/57
f 327/713/57 328/714/57 317/715/57 318/716/57
